<?xml version="1.0" encoding="UTF-8" standalone="no"?>
<!-- Created with Inkscape (http://www.inkscape.org/) -->

<svg
   width="48"
   height="48"
   viewBox="0 0 12.7 12.7"
   version="1.1"
   id="svg1"
   inkscape:version="1.3.2 (091e20ef0f, 2023-11-25)"
   sodipodi:docname="android_icon_legacy.svg"
   inkscape:export-filename="icon/android_icon_legacy192.png"
   inkscape:export-xdpi="384"
   inkscape:export-ydpi="384"
   xml:space="preserve"
   xmlns:inkscape="http://www.inkscape.org/namespaces/inkscape"
   xmlns:sodipodi="http://sodipodi.sourceforge.net/DTD/sodipodi-0.dtd"
   xmlns="http://www.w3.org/2000/svg"
   xmlns:svg="http://www.w3.org/2000/svg"><sodipodi:namedview
     id="namedview1"
     pagecolor="#ffffff"
     bordercolor="#000000"
     borderopacity="0.25"
     inkscape:showpageshadow="2"
     inkscape:pageopacity="0.0"
     inkscape:pagecheckerboard="0"
     inkscape:deskcolor="#d1d1d1"
     inkscape:document-units="px"
     showgrid="true"
     showguides="true"
     inkscape:zoom="16.57276"
     inkscape:cx="19.037263"
     inkscape:cy="23.743782"
     inkscape:window-width="1904"
     inkscape:window-height="1115"
     inkscape:window-x="35"
     inkscape:window-y="32"
     inkscape:window-maximized="0"
     inkscape:current-layer="layer2"><inkscape:grid
       id="grid1"
       units="px"
       originx="0"
       originy="0"
       spacingx="0.26458333"
       spacingy="0.26458333"
       empcolor="#0099e5"
       empopacity="0.30196078"
       color="#0099e5"
       opacity="0.14901961"
       empspacing="2"
       dotted="false"
       gridanglex="30"
       gridanglez="30"
       visible="true" /><sodipodi:guide
       position="9.5249995,6.3500003"
       orientation="0,-1"
       id="guide1"
       inkscape:locked="false" /><sodipodi:guide
       position="6.3499997,10.847917"
       orientation="1,0"
       id="guide2"
       inkscape:locked="false" /><sodipodi:guide
       position="9.5249995,9.5250002"
       orientation="0,-1"
       id="guide3"
       inkscape:locked="false" /><sodipodi:guide
       position="10.318749,3.1750005"
       orientation="0,-1"
       id="guide4"
       inkscape:locked="false" /><sodipodi:guide
       position="6.3499997,12.964583"
       orientation="1,0"
       id="guide5"
       inkscape:locked="false" /><sodipodi:guide
       position="1.3229166,12.964583"
       orientation="1,0"
       id="guide6"
       inkscape:locked="false" /><sodipodi:guide
       position="11.377083,12.170833"
       orientation="1,0"
       id="guide7"
       inkscape:locked="false" /><sodipodi:guide
       position="9.7895828,11.377083"
       orientation="0,-1"
       id="guide8"
       inkscape:locked="false" /><sodipodi:guide
       position="9.2604162,0.79375063"
       orientation="0,-1"
       id="guide9"
       inkscape:locked="false" /></sodipodi:namedview><defs
     id="defs1" /><g
     inkscape:groupmode="layer"
     id="layer2"
     inkscape:label="Layer 2"
     style="display:inline"><rect
       style="display:inline;fill:#9fde84;stroke-width:2.31869"
       id="rect4"
       width="12.699999"
       height="12.7"
       x="-2.7755576e-17"
       y="2.09092e-16" /><path
       style="fill:#9b7f9c;stroke-width:0.264583;fill-opacity:1"
       d="m 3.9687498,8.4666662 -10e-8,0.5291665 H 4.4979163 V 9.5249994 H 8.2020827 V 8.9958327 h 0.5291667 l 1e-7,-0.5291665 -2.3812498,-0.5291668 z"
       id="path23"
       sodipodi:nodetypes="cccccccccc" /><path
       id="rect23"
       style="fill:#f9dba9;stroke-width:0.264583"
       d="M 4.4979167,3.7041664 6.3499997,3.4395832 8.2020831,3.7041664 8.4666662,6.0854163 8.2020831,8.4666662 6.3499997,8.7312495 4.4979167,8.4666662 4.2333331,6.0854163 Z"
       sodipodi:nodetypes="ccccccccc" /><path
       id="rect24"
       style="fill:#efa575;stroke-width:0.264583"
       d="M 6.35 3.4395833 L 4.4979167 3.7041667 L 4.365625 3.8364583 L 4.4979167 3.96875 L 8.2020833 3.96875 L 8.334375 3.8364583 L 8.2020833 3.7041667 L 6.35 3.4395833 z M 5.2916667 5.0270833 L 5.0270833 5.2916667 L 5.0270833 5.55625 L 5.55625 5.55625 L 5.55625 5.2916667 L 5.2916667 5.0270833 z M 6.35 5.0270833 L 6.0854167 5.2916667 L 6.0854167 5.55625 L 6.6145833 5.55625 L 6.6145833 5.2916667 L 6.35 5.0270833 z M 7.4083333 5.0270833 L 7.14375 5.2916667 L 7.14375 5.55625 L 7.6729167 5.55625 L 7.6729167 5.2916667 L 7.4083333 5.0270833 z M 5.8208333 5.8208333 L 5.55625 6.0854167 L 5.55625 6.35 L 6.0854167 6.35 L 6.0854167 6.0854167 L 5.8208333 5.8208333 z M 6.8791667 5.8208333 L 6.6145833 6.0854167 L 6.6145833 6.35 L 7.14375 6.35 L 7.14375 6.0854167 L 6.8791667 5.8208333 z M 6.35 6.35 L 6.0854167 6.6145833 L 6.0854167 6.8791667 L 6.6145833 6.8791667 L 6.6145833 6.6145833 L 6.35 6.35 z M 7.4083333 6.8590129 L 7.14375 7.1235962 L 7.14375 7.3881795 L 7.6729167 7.3881795 L 7.6729167 7.1235962 L 7.4083333 6.8590129 z M 5.2916667 6.8791667 L 5.0270833 7.14375 L 5.0270833 7.4083333 L 5.55625 7.4083333 L 5.55625 7.14375 L 5.2916667 6.8791667 z M 5.8208333 7.4083333 L 5.55625 7.6729167 L 5.55625 7.9375 L 6.0854167 7.9375 L 6.0854167 7.6729167 L 5.8208333 7.4083333 z M 6.8791667 7.4083333 L 6.6145833 7.6729167 L 6.6145833 7.9375 L 7.14375 7.9375 L 7.14375 7.6729167 L 6.8791667 7.4083333 z M 6.35 7.9375 L 6.0854167 8.2020833 L 6.0854167 8.4666667 L 6.6145833 8.4666667 L 6.6145833 8.2020833 L 6.35 7.9375 z " /><path
       id="rect10"
       style="fill:#b83744;stroke-width:0.264583;fill-opacity:1"
       d="M 5.0270833 4.2333333 L 5.0270833 5.2916667 L 5.55625 5.2916667 L 5.55625 4.2333333 L 5.0270833 4.2333333 z M 6.0854167 4.2333333 L 6.0854167 5.2916667 L 6.6145833 5.2916667 L 6.6145833 4.2333333 L 6.0854167 4.2333333 z M 7.14375 4.2333333 L 7.14375 5.2916667 L 7.6729167 5.2916667 L 7.6729167 4.2333333 L 7.14375 4.2333333 z M 5.55625 5.55625 L 5.55625 6.0854167 L 6.0854167 6.0854167 L 6.0854167 5.55625 L 5.55625 5.55625 z M 6.0854167 6.0854167 L 6.0854167 6.6145833 L 6.6145833 6.6145833 L 6.6145833 6.0854167 L 6.0854167 6.0854167 z M 6.6145833 6.0854167 L 7.14375 6.0854167 L 7.14375 5.55625 L 6.6145833 5.55625 L 6.6145833 6.0854167 z M 7.14375 6.0854167 L 7.14375 7.1235962 L 7.6930705 7.1235962 L 7.6930705 6.0854167 L 7.14375 6.0854167 z M 7.14375 7.1235962 L 6.6145833 7.1235962 L 6.6145833 7.6729167 L 7.14375 7.6729167 L 7.14375 7.1235962 z M 6.6145833 7.6729167 L 6.0854167 7.6729167 L 6.0854167 8.2020833 L 6.6145833 8.2020833 L 6.6145833 7.6729167 z M 6.0854167 7.6729167 L 6.0854167 7.14375 L 5.55625 7.14375 L 5.55625 7.6729167 L 6.0854167 7.6729167 z M 5.55625 7.14375 L 5.55625 6.0854167 L 5.0270833 6.0854167 L 5.0270833 7.14375 L 5.55625 7.14375 z " /><path
       id="rect9"
       style="fill:#4c384d;stroke-width:0.284996;fill-opacity:1"
       d="M 4.4979167 3.175 L 4.4979167 3.7041667 L 8.1819295 3.7041667 L 8.1819295 3.175 L 4.4979167 3.175 z M 4.4979167 3.7041667 L 3.96875 3.7041667 L 3.96875 8.4666667 L 4.4979167 8.4666667 L 4.4979167 3.7041667 z M 4.4979167 8.4666667 L 4.4979167 8.9958333 L 8.2020833 8.9958333 L 8.2020833 8.4666667 L 4.4979167 8.4666667 z M 8.2020833 8.4666667 L 8.73125 8.4666667 L 8.73125 3.7041667 L 8.2020833 3.7041667 L 8.2020833 8.4666667 z " /></g></svg>
