<?xml version="1.0" encoding="UTF-8" standalone="no"?>
<!-- Created with Inkscape (http://www.inkscape.org/) -->

<svg
   width="108"
   height="108"
   viewBox="0 0 28.574999 28.575"
   version="1.1"
   id="svg1"
   inkscape:version="1.3.2 (091e20ef0f, 2023-11-25)"
   sodipodi:docname="android_icon.svg"
   xmlns:inkscape="http://www.inkscape.org/namespaces/inkscape"
   xmlns:sodipodi="http://sodipodi.sourceforge.net/DTD/sodipodi-0.dtd"
   xmlns="http://www.w3.org/2000/svg"
   xmlns:svg="http://www.w3.org/2000/svg">
  <sodipodi:namedview
     id="namedview1"
     pagecolor="#ffffff"
     bordercolor="#000000"
     borderopacity="0.25"
     inkscape:showpageshadow="2"
     inkscape:pageopacity="0.0"
     inkscape:pagecheckerboard="0"
     inkscape:deskcolor="#d1d1d1"
     inkscape:document-units="px"
     showgrid="true"
     showguides="true"
     inkscape:zoom="4.1837696"
     inkscape:cx="30.713928"
     inkscape:cy="70.152046"
     inkscape:window-width="1904"
     inkscape:window-height="1115"
     inkscape:window-x="35"
     inkscape:window-y="32"
     inkscape:window-maximized="0"
     inkscape:current-layer="layer4"
     guidecolor="#00e54d"
     guideopacity="0.6">
    <inkscape:grid
       id="grid1"
       units="px"
       originx="0"
       originy="0"
       spacingx="0.26458333"
       spacingy="0.26458333"
       empcolor="#e5cc00"
       empopacity="0.30196078"
       color="#e5d000"
       opacity="0.14901961"
       empspacing="4"
       dotted="false"
       gridanglex="30"
       gridanglez="30"
       visible="true" />
    <sodipodi:guide
       position="7.4083331,10.946442"
       orientation="1,0"
       id="guide2"
       inkscape:locked="false" />
    <sodipodi:guide
       position="13.758333,7.4083343"
       orientation="1,0"
       id="guide5"
       inkscape:locked="false" />
    <sodipodi:guide
       position="6.3499998,14.816667"
       orientation="0,-1"
       id="guide6"
       inkscape:locked="false" />
    <sodipodi:guide
       position="2.5363004,7.4083343"
       orientation="0,-1"
       id="guide8"
       inkscape:locked="false" />
    <sodipodi:guide
       position="21.166666,6.3500011"
       orientation="1,0"
       id="guide10"
       inkscape:locked="false" />
    <sodipodi:guide
       position="14.816666,5.6619838"
       orientation="1,0"
       id="guide721"
       inkscape:locked="false" />
    <sodipodi:guide
       position="11.167116,21.166667"
       orientation="0,-1"
       id="guide722"
       inkscape:locked="false" />
    <sodipodi:guide
       position="8.4666662,13.758334"
       orientation="0,-1"
       id="guide723"
       inkscape:locked="false" />
  </sodipodi:namedview>
  <defs
     id="defs1">
    <inkscape:path-effect
       effect="fillet_chamfer"
       id="path-effect929"
       is_visible="true"
       lpeversion="1"
       nodesatellites_param="F,0,1,1,0,0.25,0,1 @ F,0,0,1,0,0,0,1 @ F,0,0,1,0,0,0,1 @ F,0,0,1,0,0,0,1 @ F,0,1,1,0,0.25,0,1 @ F,0,0,1,0,0,0,1 | F,0,0,1,0,0,0,1 @ F,0,0,1,0,0,0,1 @ F,0,0,1,0,0,0,1 @ F,0,0,1,0,0,0,1 @ F,0,0,1,0,0,0,1 @ F,0,0,1,0,0,0,1 | F,0,0,1,0,0,0,1 @ F,0,0,1,0,0,0,1 @ F,0,0,1,0,0,0,1 @ F,0,0,1,0,0,0,1 @ F,0,0,1,0,0,0,1 @ F,0,0,1,0,0,0,1 | F,0,0,1,0,0,0,1 @ F,0,0,1,0,0,0,1 @ F,0,0,1,0,0,0,1 @ F,0,0,1,0,0,0,1 @ F,0,0,1,0,0,0,1 @ F,0,0,1,0,0,0,1 @ F,0,0,1,0,0,0,1 @ F,0,0,1,0,0,0,1 | F,0,0,1,0,0,0,1 @ F,0,0,1,0,0,0,1 @ F,0,0,1,0,0,0,1 @ F,0,0,1,0,0,0,1 @ F,0,0,1,0,0,0,1 @ F,0,0,1,0,0,0,1 @ F,0,0,1,0,0,0,1 @ F,0,0,1,0,0,0,1 | F,0,0,1,0,0,0,1 @ F,0,0,1,0,0,0,1 @ F,0,0,1,0,0,0,1 @ F,0,0,1,0,0,0,1 @ F,0,0,1,0,0,0,1 @ F,0,0,1,0,0,0,1 @ F,0,0,1,0,0,0,1 | F,0,0,1,0,0,0,1 @ F,0,0,1,0,0,0,1 @ F,0,0,1,0,0,0,1 @ F,0,0,1,0,0,0,1 @ F,0,0,1,0,0,0,1 @ F,0,0,1,0,0,0,1 @ F,0,0,1,0,0,0,1"
       radius="0.25"
       unit="px"
       method="auto"
       mode="F"
       chamfer_steps="1"
       flexible="false"
       use_knot_distance="true"
       apply_no_radius="true"
       apply_with_radius="true"
       only_selected="true"
       hide_knots="false" />
    <inkscape:path-effect
       effect="fillet_chamfer"
       id="path-effect928"
       is_visible="true"
       lpeversion="1"
       nodesatellites_param="F,0,1,1,0,0.25,0,1 @ F,0,0,1,0,0,0,1 @ F,0,0,1,0,0,0,1 @ F,0,1,1,0,0.25,0,1 | F,0,1,1,0,0.25,0,1 @ F,0,0,1,0,0,0,1 @ F,0,0,1,0,0,0,1 @ F,0,0,1,0,0,0,1 | F,0,0,1,0,0,0,1 @ F,0,0,1,0,0,0,1 @ F,0,0,1,0,0,0,1 @ F,0,1,1,0,0.25,0,1 | F,0,1,1,0,0.25,0,1 @ F,0,0,1,0,0,0,1 @ F,0,0,1,0,0,0,1 @ F,0,0,1,0,0,0,1 | F,0,0,1,0,0,0,1 @ F,0,0,1,0,0,0,1 @ F,0,0,1,0,0,0,1 @ F,0,1,1,0,0.25,0,1 | F,0,1,1,0,0.25,0,1 @ F,0,0,1,0,0,0,1 @ F,0,0,1,0,0,0,1 @ F,0,1,1,0,0.25,0,1 | F,0,0,1,0,0,0,1 @ F,0,0,1,0,0,0,1 @ F,0,0,1,0,0,0,1 @ F,0,0,1,0,0,0,1"
       radius="0"
       unit="px"
       method="auto"
       mode="F"
       chamfer_steps="1"
       flexible="false"
       use_knot_distance="true"
       apply_no_radius="true"
       apply_with_radius="true"
       only_selected="true"
       hide_knots="false" />
    <inkscape:path-effect
       effect="fillet_chamfer"
       id="path-effect927"
       is_visible="true"
       lpeversion="1"
       nodesatellites_param="F,0,0,1,0,0,0,1 @ F,0,0,1,0,0,0,1 @ F,0,0,1,0,0,0,1 @ F,0,0,1,0,0,0,1 @ F,0,0,1,0,0,0,1 @ F,0,0,1,0,0,0,1 | F,0,0,1,0,0,0,1 @ F,0,0,1,0,0,0,1 @ F,0,1,1,0,0.25,0,1 @ F,0,1,1,0,0.25,0,1 | F,0,0,1,0,0,0,1 @ F,0,1,1,0,0.25,0,1 @ F,0,1,1,0,0.25,0,1 @ F,0,0,1,0,0,0,1 | F,0,0,1,0,0,0,1 @ F,0,0,1,0,0,0,1 @ F,0,0,1,0,0,0,1 @ F,0,1,1,0,0.25,0,1 @ F,0,0,1,0,0,0,1 @ F,0,1,1,0,0.25,0,1 | F,0,0,1,0,0,0,1 @ F,0,0,1,0,0,0,1 @ F,0,0,1,0,0,0,1 @ F,0,1,1,0,0.25,0,1 @ F,0,0,1,0,0,0,1 @ F,0,1,1,0,0.25,0,1 | F,0,0,1,0,0,0,1 @ F,0,1,1,0,0.25,0,1 @ F,0,1,1,0,0.25,0,1 @ F,0,1,1,0,0.25,0,1 | F,0,0,1,0,0,0,1 @ F,0,1,1,0,0.25,0,1 @ F,0,1,1,0,0.25,0,1 @ F,0,1,1,0,0.25,0,1"
       radius="0.25"
       unit="px"
       method="auto"
       mode="F"
       chamfer_steps="1"
       flexible="false"
       use_knot_distance="true"
       apply_no_radius="true"
       apply_with_radius="true"
       only_selected="true"
       hide_knots="false" />
    <inkscape:path-effect
       effect="fillet_chamfer"
       id="path-effect1285"
       is_visible="true"
       lpeversion="1"
       nodesatellites_param="F,0,0,1,0,0,0,1 @ F,0,1,1,0,0.25,0,1 @ F,0,0,1,0,0,0,1 @ F,0,1,1,0,0.25,0,1 @ F,0,1,1,0,0.25,0,1 @ F,0,0,1,0,0,0,1 @ F,0,1,1,0,0.25,0,1 @ F,0,0,1,0,0,0,1 @ F,0,0,1,0,0,0,1 @ F,0,0,1,0,0,0,1"
       radius="0.25"
       unit="px"
       method="auto"
       mode="F"
       chamfer_steps="1"
       flexible="false"
       use_knot_distance="true"
       apply_no_radius="true"
       apply_with_radius="true"
       only_selected="true"
       hide_knots="false" />
    <inkscape:path-effect
       effect="fillet_chamfer"
       id="path-effect492"
       is_visible="true"
       lpeversion="1"
       nodesatellites_param="F,0,0,1,0,0,0,1 @ F,0,1,1,0,0.25,0,1 @ F,0,0,1,0,0,0,1 @ F,0,1,1,0,0.25,0,1 @ F,0,1,1,0,0.25,0,1 @ F,0,0,1,0,0,0,1 @ F,0,1,1,0,0.25,0,1 @ F,0,0,1,0,0,0,1 @ F,0,0,1,0,0,0,1 @ F,0,0,1,0,0,0,1"
       radius="0.25"
       unit="px"
       method="auto"
       mode="F"
       chamfer_steps="1"
       flexible="false"
       use_knot_distance="true"
       apply_no_radius="true"
       apply_with_radius="true"
       only_selected="true"
       hide_knots="false" />
    <inkscape:path-effect
       effect="fillet_chamfer"
       id="path-effect491"
       is_visible="true"
       lpeversion="1"
       nodesatellites_param="F,0,1,1,0,0.25,0,1 @ F,0,0,1,0,0,0,1 @ F,0,1,1,0,0.25,0,1 @ F,0,1,1,0,0.25,0,1 @ F,0,0,1,0,0,0,1 @ F,0,1,1,0,0.25,0,1 @ F,0,1,1,0,0.25,0,1 @ F,0,0,1,0,0,0,1 @ F,0,1,1,0,0.25,0,1 @ F,0,1,1,0,0.25,0,1 @ F,0,0,1,0,0,0,1 @ F,0,1,1,0,0.25,0,1"
       radius="0.25"
       unit="px"
       method="auto"
       mode="F"
       chamfer_steps="1"
       flexible="false"
       use_knot_distance="true"
       apply_no_radius="true"
       apply_with_radius="true"
       only_selected="true"
       hide_knots="false" />
    <inkscape:path-effect
       effect="fillet_chamfer"
       id="path-effect483"
       is_visible="true"
       lpeversion="1"
       nodesatellites_param="F,0,0,1,0,0,0,1 @ F,0,1,1,0,0.5,0,1 @ F,0,0,1,0,0,0,1 @ F,0,1,1,0,0.5,0,1 @ F,0,1,1,0,0.5,0,1 @ F,0,0,1,0,0,0,1 @ F,0,1,1,0,0.5,0,1 @ F,0,0,1,0,0,0,1 @ F,0,0,1,0,0,0,1 @ F,0,0,1,0,0,0,1"
       radius="0.5"
       unit="px"
       method="auto"
       mode="F"
       chamfer_steps="1"
       flexible="false"
       use_knot_distance="true"
       apply_no_radius="true"
       apply_with_radius="true"
       only_selected="true"
       hide_knots="false" />
    <inkscape:path-effect
       effect="fillet_chamfer"
       id="path-effect482"
       is_visible="true"
       lpeversion="1"
       nodesatellites_param="F,0,1,1,0,0.5,0,1 @ F,0,0,1,0,0,0,1 @ F,0,1,1,0,0.5,0,1 @ F,0,1,1,0,0.5,0,1 @ F,0,0,1,0,0,0,1 @ F,0,1,1,0,0.5,0,1 @ F,0,1,1,0,0.5,0,1 @ F,0,0,1,0,0,0,1 @ F,0,1,1,0,0.5,0,1 @ F,0,1,1,0,0.5,0,1 @ F,0,0,1,0,0,0,1 @ F,0,1,1,0,0.5,0,1"
       radius="0.5"
       unit="px"
       method="auto"
       mode="F"
       chamfer_steps="1"
       flexible="false"
       use_knot_distance="true"
       apply_no_radius="true"
       apply_with_radius="true"
       only_selected="true"
       hide_knots="false" />
  </defs>
  <g
     inkscape:label="bg"
     inkscape:groupmode="layer"
     id="layer1"
     style="display:none"
     sodipodi:insensitive="true">
    <rect
       style="fill:#dd4045;fill-opacity:1;stroke:none;stroke-width:0.264583;stroke-opacity:1"
       id="rect1405"
       width="28.574999"
       height="28.575001"
       x="0"
       y="0"
       ry="0.039531328" />
    <path
       id="rect495"
       style="fill:#e66159;fill-opacity:1;stroke:none;stroke-width:0.264583;stroke-opacity:1"
       d="M 5.8208333,2.7407407e-8 V 0.52916671 H 6.8791666 V 2.7407407e-8 Z m 7.4083327,0 V 0.52916671 h 1.058333 V 2.7407407e-8 Z M 17.462499,2.6458333 v 1.0583334 h 1.058334 1.058333 V 2.6458333 h -1.058333 z m 5.291667,0 v 1.0583334 h 1.058333 V 2.6458333 Z M 15.345833,3.7041667 V 4.7625 h 1.058333 V 3.7041667 Z m 11.641666,0 V 4.7625 h 1.058333 V 3.7041667 Z M 8.9958332,5.8208333 V 6.8791666 H 10.054166 V 5.8208333 Z m 15.8749998,0 v 1.0583333 h 1.058333 V 5.8208333 Z M 0,7.9374999 V 8.9958332 H 0.52916665 V 7.9374999 Z m 3.7041667,2.1166661 v 1.058333 H 4.7625 v -1.058333 z m 7.4083323,0 v 1.058333 h 1.058334 1.058333 v -1.058333 h -1.058333 z m -2.1166658,1.058333 v 1.058334 H 10.054166 V 11.112499 Z M 0,12.170833 v 1.058333 1.058333 h 0.52916665 v -1.058333 -1.058333 z m 21.695833,0 v 1.058333 h 1.058333 v -1.058333 z m -2.116667,3.175 v 1.058333 h 1.058333 v -1.058333 z m -9.525,1.058333 v 1.058333 h 1.058333 1.058334 v -1.058333 h -1.058334 z m 5.291667,0 v 1.058333 h 1.058333 v -1.058333 z m 9.525,0 v 1.058333 h 1.058333 V 16.404166 Z M 2.6458333,17.462499 v 1.058334 H 3.7041667 4.7625 V 17.462499 H 3.7041667 Z m 5.2916666,0 v 1.058334 h 1.0583333 v -1.058334 z m 9.5249991,2.116667 v 1.058333 h 1.058334 v -1.058333 z m 2.116667,1.058333 v 1.058334 h 1.058333 V 20.637499 Z M 6.8791666,21.695833 v 1.058333 1.058333 h 1.0583333 v -1.058333 -1.058333 z m -4.2333333,3.175 v 1.058333 h 1.0583334 v -1.058333 z m 4.2333333,2.116666 v 1.058333 h 1.0583333 v -1.058333 z m 5.2916664,0 v 1.058333 h 1.058333 v -1.058333 z m 10.583333,0 v 1.058333 h 1.058333 v -1.058333 z"
       sodipodi:nodetypes="ccccccccccccccccccccccccccccccccccccccccccccccccccccccccccccccccccccccccccccccccccccccccccccccccccccccccccccccccccccccccccccccccccccccccccccccccccc" />
    <path
       id="rect496"
       style="fill:#b83744;fill-opacity:1;stroke:none;stroke-width:0.264583;stroke-opacity:1"
       d="M 6.8791666,2.7407407e-8 V 0.52916671 H 7.9374999 V 2.7407407e-8 Z m 2.1166666,0 V 0.52916671 H 10.054166 V 2.7407407e-8 Z m 8.4666658,0 V 0.52916671 h 1.058334 V 2.7407407e-8 Z m 3.175,0 V 0.52916671 h 1.058334 V 2.7407407e-8 Z m 2.116667,0 V 0.52916671 h 1.058333 V 2.7407407e-8 Z M 2.6458333,0.52916671 V 1.5875 H 3.7041667 V 0.52916671 Z m 10.5833327,0 V 1.5875 h 1.058333 1.058334 V 0.52916671 h -1.058334 z m 12.7,0 V 1.5875 h 1.058333 V 0.52916671 Z M 10.054166,1.5875 v 1.0583333 h 1.058333 V 1.5875 Z m 7.408333,0 v 1.0583333 h 1.058334 V 1.5875 Z m 5.291667,0 v 1.0583333 h 1.058333 V 1.5875 Z m 0,1.0583333 h -1.058333 v 1.0583334 h 1.058333 z m -21.166666,0 V 3.7041667 H 2.6458333 V 2.6458333 Z m 6.3499999,0 V 3.7041667 H 8.9958332 V 2.6458333 Z m 5.2916661,0 V 3.7041667 4.7625 h 1.058333 V 3.7041667 2.6458333 Z m 6.35,0 v 1.0583334 h 1.058333 V 2.6458333 Z m 0,1.0583334 H 18.520833 V 4.7625 h 1.058333 z m 7.408333,-1.0583334 v 1.0583334 h 1.058333 V 2.6458333 Z M 0,3.7041667 V 4.7625 H 0.52916665 V 3.7041667 Z m 16.404166,0 V 4.7625 h 1.058333 V 3.7041667 Z M 1.5875,4.7625 V 5.8208333 H 2.6458333 V 4.7625 Z m 19.049999,0 v 1.0583333 h 1.058334 V 4.7625 Z m 4.233334,0 v 1.0583333 h 1.058333 V 4.7625 Z m 1.058333,1.0583333 v 1.0583333 h 1.058333 V 5.8208333 Z m -19.0499994,0 V 6.8791666 H 7.9374999 V 5.8208333 Z m 3.1749994,0 v 1.0583333 h 1.058333 V 5.8208333 Z m 0,1.0583333 H 8.9958332 v 1.0583333 h 1.0583328 z m 2.116667,-1.0583333 v 1.0583333 1.0583333 h 1.058333 V 6.8791666 5.8208333 Z m 10.583333,0 v 1.0583333 h 1.058333 V 5.8208333 Z M 4.7625,6.8791666 V 7.9374999 H 5.8208333 V 6.8791666 Z m 12.699999,0 v 1.0583333 h 1.058334 V 6.8791666 Z M 0.52916665,7.9374999 V 8.9958332 H 1.5875 V 7.9374999 Z m 0,1.0583333 H 0 V 10.054166 H 0.52916665 Z M 2.6458333,7.9374999 V 8.9958332 H 3.7041667 V 7.9374999 Z m 12.6999997,0 v 1.0583333 h 1.058333 V 7.9374999 Z m 11.641666,0 v 1.0583333 h 1.058333 V 7.9374999 Z M 12.170833,8.9958332 v 1.0583328 h 1.058333 V 8.9958332 Z m 5.291666,0 v 1.0583328 h 1.058334 V 8.9958332 Z m 6.35,0 v 1.0583328 h 1.058334 V 8.9958332 Z M 2.6458333,10.054166 v 1.058333 h 1.0583334 v -1.058333 z m 1.0583334,1.058333 v 1.058334 H 4.7625 v -1.058334 z m 4.2333332,-1.058333 v 1.058333 h 1.0583333 v -1.058333 z m 2.1166661,0 v 1.058333 h 1.058333 v -1.058333 z m 15.875,0 v 1.058333 h 1.058333 V 10.054166 Z M 0,11.112499 v 1.058334 h 0.52916665 v -1.058334 z m 13.229166,0 v 1.058334 h 1.058333 v -1.058334 z m 5.291667,0 v 1.058334 h 1.058333 V 11.112499 Z M 6.8791666,12.170833 v 1.058333 H 7.9374999 8.9958332 10.054166 V 12.170833 H 8.9958332 7.9374999 Z m 3.1749994,1.058333 v 1.058333 h 1.058333 v -1.058333 z m 12.7,-1.058333 v 1.058333 h 1.058333 v -1.058333 z m 2.116667,0 v 1.058333 1.058333 h 1.058333 1.058333 V 13.229166 H 25.929166 V 12.170833 Z M 0.52916665,13.229166 v 1.058333 H 1.5875 v -1.058333 z m 2.11666665,0 v 1.058333 H 3.7041667 4.7625 V 13.229166 H 3.7041667 Z m 10.5833327,0 v 1.058333 h 1.058333 v -1.058333 z m 2.116667,0 v 1.058333 h 1.058333 v -1.058333 z m 3.175,0 v 1.058333 h 1.058333 v -1.058333 z m 1.058333,1.058333 v 1.058334 h 1.058333 1.058334 1.058333 v -1.058334 h -1.058333 -1.058334 z m -13.7583327,0 v 1.058334 h 1.0583333 v -1.058334 z m 4.2333327,1.058334 v 1.058333 h 1.058333 v -1.058333 z m 5.291667,0 v 1.058333 h 1.058333 v -1.058333 z m 0,1.058333 h -1.058334 v 1.058333 h 1.058334 z m 9.525,-1.058333 v 1.058333 h 1.058333 v -1.058333 z m 1.058333,1.058333 v 1.058333 h 1.058333 v -1.058333 z m -24.341666,0 v 1.058333 1.058334 h 1.0583333 v -1.058334 -1.058333 z m 10.583333,0 v 1.058333 h 1.058333 v -1.058333 z m 0,1.058333 h -1.058334 v 1.058334 h 1.058334 z m 6.35,-1.058333 v 1.058333 h 1.058333 v -1.058333 z m 2.116666,0 v 1.058333 h 1.058334 V 16.404166 Z M 0,17.462499 v 1.058334 h 0.52916665 v -1.058334 z m 4.7625,0 v 1.058334 1.058333 h 1.0583333 v -1.058333 -1.058334 z m 2.1166666,0 v 1.058334 h 1.0583333 v -1.058334 z m 2.1166666,0 v 1.058334 h 1.0583328 v -1.058334 z m 4.2333328,1.058334 v 1.058333 h 1.058333 v -1.058333 z m 4.233333,0 v 1.058333 h 1.058334 v -1.058333 z m 8.466667,0 v 1.058333 h 1.058333 v -1.058333 z m -10.583333,1.058333 v 1.058333 h 1.058333 v -1.058333 z m 4.233333,0 v 1.058333 h 1.058333 v -1.058333 z m 0,1.058333 h -1.058333 v 1.058334 h 1.058333 z m 4.233333,-1.058333 v 1.058333 h 1.058334 V 19.579166 Z M 0.52916665,20.637499 v 1.058334 H 1.5875 v -1.058334 z m 9.52499935,0 v 1.058334 h 1.058333 v -1.058334 z m 11.641667,0 v 1.058334 h 1.058333 V 20.637499 Z M 2.6458333,21.695833 v 1.058333 H 3.7041667 4.7625 V 21.695833 H 3.7041667 Z m 3.175,0 v 1.058333 h 1.0583333 v -1.058333 z m 2.1166666,0 v 1.058333 h 1.0583333 v -1.058333 z m 19.0499991,0 v 1.058333 h 1.058333 V 21.695833 Z M 0,22.754166 v 1.058333 h 0.52916665 v -1.058333 z m 10.054166,0 v 1.058333 h 1.058333 v -1.058333 z m 6.35,0 v 1.058333 h 1.058333 V 22.754166 Z M 2.6458333,23.812499 v 1.058334 h 1.0583334 v -1.058334 z m 1.0583334,1.058334 v 1.058333 H 4.7625 v -1.058333 z m 3.1749999,-1.058334 v 1.058334 h 1.0583333 v -1.058334 z m 13.7583324,0 v 1.058334 h 1.058334 v -1.058334 z m 6.35,0 v 1.058334 h 1.058333 V 23.812499 Z M 8.9958332,24.870833 v 1.058333 h 1.0583328 v -1.058333 z m 7.4083328,0 v 1.058333 h 1.058333 v -1.058333 z m 2.116667,0 v 1.058333 h 1.058333 V 24.870833 Z M 6.8791666,25.929166 v 1.058333 h 1.0583333 v -1.058333 z m 1.0583333,1.058333 v 1.058333 h 1.0583333 v -1.058333 z m -1.0583333,0 H 5.8208333 v 1.058333 h 1.0583333 z m 5.2916664,-1.058333 v 1.058333 h 1.058333 1.058333 v -1.058333 h -1.058333 z m 13.758333,0 v 1.058333 h 1.058333 V 25.929166 Z M 3.7041667,26.987499 v 1.058333 H 4.7625 v -1.058333 z m 12.6999993,0 v 1.058333 h 1.058333 v -1.058333 z m 3.175,0 v 1.058333 h 1.058333 v -1.058333 z m 2.116667,0 v 1.058333 h 1.058333 v -1.058333 z"
       sodipodi:nodetypes="cccccccccccccccccccccccccccccccccccccccccccccccccccccccccccccccccccccccccccccccccccccccccccccccccccccccccccccccccccccccccccccccccccccccccccccccccccccccccccccccccccccccccccccccccccccccccccccccccccccccccccccccccccccccccccccccccccccccccccccccccccccccccccccccccccccccccccccccccccccccccccccccccccccccccccccccccccccccccccccccccccccccccccccccccccccccccccccccccccccccccccccccccccccccccccccccccccccccccccccccccccccccccccccccccccccccccccccccccccccccccccccccccccccccccccccccccccccccccccccccccccccccccccccccccccccccccccccccccccccccccccccccccccccccccccccccccccccccccccccc" />
    <path
       id="rect497"
       style="fill:#e07a5f;fill-opacity:1;stroke:none;stroke-width:0.264583;stroke-opacity:1"
       d="M 0.52916666,0 V 0.52916666 H 1.5875 2.6458333 3.7041666 V 0 H 2.6458333 1.5875 Z M 4.7624999,0 V 0.52916666 H 5.8208332 V 0 Z M 5.8208332,0.52916666 V 1.5875 H 6.8791665 V 0.52916666 Z M 10.054166,0 V 0.52916666 H 11.1125 V 0 Z m 0,0.52916666 H 8.9958332 V 1.5875 H 10.054166 Z M 12.170833,0 v 0.52916666 h 1.058333 V 0 Z M 14.2875,0 v 0.52916666 h 1.058333 V 0 Z m 2.116666,0 V 0.52916666 H 17.4625 V 0 Z m 2.116667,0 v 0.52916666 h 1.058333 V 0 Z m 3.175,0 v 0.52916666 h 1.058333 V 0 Z M 23.8125,0 v 0.52916666 h 1.058333 V 0 Z m 2.116666,0 V 0.52916666 H 26.9875 V 0 Z m 2.116667,0 v 0.52916666 h 0.529166 V 0 Z M 1.5875,1.5875 V 2.6458333 H 2.6458333 V 1.5875 Z M 2.6458333,2.6458333 V 3.7041666 H 3.7041666 V 2.6458333 Z m -1.0583333,0 H 0.52916666 V 3.7041666 H 1.5875 Z M 18.520833,1.5875 v 1.0583333 h 1.058333 V 1.5875 Z m 3.175,0 v 1.0583333 h 1.058333 V 1.5875 Z m 6.35,0 v 1.0583333 h 0.529166 V 1.5875 Z M 4.7624999,2.6458333 V 3.7041666 H 5.8208332 6.8791665 V 2.6458333 H 5.8208332 Z m 4.2333333,0 V 3.7041666 H 10.054166 11.1125 V 2.6458333 h -1.058334 z m 3.1749998,0 v 1.0583333 h 1.058333 V 2.6458333 Z m 2.116667,0 v 1.0583333 h 1.058333 V 2.6458333 Z m 2.116666,0 V 3.7041666 H 17.4625 V 2.6458333 Z m 7.408334,0 v 1.0583333 h 1.058333 V 2.6458333 Z m 2.116666,0 V 3.7041666 H 26.9875 V 2.6458333 Z M 0,4.7624999 V 5.8208332 H 0.52916666 V 4.7624999 Z m 2.6458333,0 V 5.8208332 H 3.7041666 V 6.8791665 H 2.6458333 V 7.9374999 H 3.7041666 4.7624999 V 6.8791665 5.8208332 4.7624999 H 3.7041666 Z m 4.2333332,0 V 5.8208332 H 7.9374999 V 4.7624999 Z M 7.9374999,5.8208332 V 6.8791665 H 6.8791665 V 7.9374999 H 7.9374999 8.9958332 V 6.8791665 5.8208332 Z m 1.0583333,0 H 10.054166 V 4.7624999 H 8.9958332 Z M 6.8791665,6.8791665 V 5.8208332 H 5.8208332 V 6.8791665 Z M 12.170833,4.7624999 v 1.0583333 h 1.058333 V 4.7624999 Z m 1.058333,1.0583333 V 6.8791665 7.9374999 H 14.2875 V 6.8791665 5.8208332 Z m 2.116667,-1.0583333 v 1.0583333 h 1.058333 V 4.7624999 Z m 3.175,0 v 1.0583333 h 1.058333 V 4.7624999 Z m 1.058333,1.0583333 V 6.8791665 H 18.520833 V 7.9374999 H 19.579166 20.6375 V 6.8791665 5.8208332 Z m 3.175,-1.0583333 V 5.8208332 H 23.8125 v 1.0583333 h 1.058333 V 5.8208332 4.7624999 H 23.8125 Z m 2.116667,2.1166666 v 1.0583334 h 1.058333 V 6.8791665 Z m -1.058333,0 H 22.754166 V 7.9374999 H 23.8125 Z m -1.058334,0 V 5.8208332 H 21.695833 V 6.8791665 Z M 26.9875,4.7624999 v 1.0583333 h 1.058333 0.529166 V 4.7624999 H 28.045833 Z M 0,6.8791665 V 7.9374999 H 0.52916666 V 6.8791665 Z m 11.1125,0 v 1.0583334 h 1.058333 V 6.8791665 Z m 4.233333,0 v 1.0583334 h 1.058333 V 6.8791665 Z m 11.641667,0 v 1.0583334 h 1.058333 V 6.8791665 Z M 0.52916666,8.9958332 V 10.054166 H 1.5875 V 8.9958332 Z m 2.11666664,0 V 10.054166 H 3.7041666 4.7624999 V 8.9958332 H 3.7041666 Z M 4.7624999,10.054166 V 11.1125 H 5.8208332 V 10.054166 Z M 6.8791665,8.9958332 V 10.054166 11.1125 H 7.9374999 V 10.054166 H 8.9958332 V 8.9958332 H 7.9374999 Z M 7.9374999,11.1125 v 1.058333 H 8.9958332 V 11.1125 Z M 11.1125,8.9958332 v 1.0583328 h 1.058333 V 8.9958332 Z m 5.291666,0 V 10.054166 H 17.4625 V 8.9958332 Z M 17.4625,10.054166 V 11.1125 h 1.058333 v -1.058334 z m 1.058333,0 h 1.058333 V 8.9958332 H 18.520833 Z M 20.6375,8.9958332 v 1.0583328 h 1.058333 1.058333 V 8.9958332 h -1.058333 z m 4.233333,0 V 10.054166 H 25.929166 26.9875 V 8.9958332 H 25.929166 Z M 13.229166,10.054166 V 11.1125 H 14.2875 v -1.058334 z m 0,1.058334 h -1.058333 v 1.058333 h 1.058333 z m 0,1.058333 v 1.058333 H 14.2875 V 12.170833 Z M 14.2875,13.229166 V 14.2875 h 1.058333 v -1.058334 z m 13.758333,-3.175 v 1.058334 1.058333 h 0.529166 V 11.1125 10.054166 Z M 10.054166,11.1125 v 1.058333 H 11.1125 V 11.1125 Z m 11.641667,0 v 1.058333 h 1.058333 V 11.1125 Z m 0,1.058333 H 20.6375 v 1.058333 h 1.058333 z m 0,1.058333 V 14.2875 h 1.058333 v -1.058334 z m -1.058333,0 H 19.579166 V 14.2875 H 20.6375 Z m -1.058334,0 V 12.170833 H 18.520833 17.4625 16.404166 V 13.229166 14.2875 H 17.4625 v -1.058334 h 1.058333 z M 24.870833,11.1125 v 1.058333 h 1.058333 V 11.1125 Z m 1.058333,1.058333 v 1.058333 H 26.9875 v -1.058333 z m -25.39999934,0 v 1.058333 H 1.5875 v -1.058333 z m 2.11666664,0 v 1.058333 h 1.0583333 v -1.058333 z m 2.1166666,1.058333 V 14.2875 h 1.0583333 v -1.058334 z m 0,1.058334 H 3.7041666 2.6458333 v 1.058333 H 3.7041666 4.7624999 Z M 6.8791665,13.229166 V 14.2875 15.345833 H 7.9374999 V 14.2875 13.229166 Z m 2.1166667,0 V 14.2875 h 1.0583328 v -1.058334 z m 2.1166668,0 V 14.2875 h 1.058333 v -1.058334 z m 12.7,0 V 14.2875 h 1.058333 v -1.058334 z m 4.233333,0 V 14.2875 h 0.529166 V 13.229166 Z M 0,14.2875 v 1.058333 H 0.52916666 V 14.2875 Z m 25.929166,0 v 1.058333 H 26.9875 V 14.2875 Z M 11.1125,15.345833 v 1.058333 h 1.058333 v -1.058333 z m 3.175,0 v 1.058333 h 1.058333 v -1.058333 z m 4.233333,0 v 1.058333 h 1.058333 v -1.058333 z m 2.116667,0 v 1.058333 h 1.058333 v -1.058333 z m 1.058333,1.058333 V 17.4625 H 20.6375 v 1.058333 h 1.058333 1.058333 V 17.4625 16.404166 Z m 6.35,-1.058333 v 1.058333 h 0.529166 V 15.345833 Z M 0,16.404166 V 17.4625 h 0.52916666 v -1.058334 z m 2.6458333,0 V 17.4625 H 3.7041666 4.7624999 V 16.404166 H 3.7041666 Z m 4.2333332,0 V 17.4625 h 1.0583334 v -1.058334 z m 2.1166667,0 V 17.4625 h 1.0583328 v -1.058334 z m 7.4083328,0 V 17.4625 H 17.4625 v -1.058334 z m 7.408334,0 V 17.4625 h 1.058333 v -1.058334 z m 1.058333,1.058334 v 1.058333 H 25.929166 26.9875 V 17.4625 H 25.929166 Z M 0,18.520833 v 1.058333 h 0.52916666 v -1.058333 z m 2.6458333,0 v 1.058333 H 3.7041666 4.7624999 V 18.520833 H 3.7041666 Z m 4.2333332,0 v 1.058333 H 7.9374999 8.9958332 V 18.520833 H 7.9374999 Z m 4.2333335,0 v 1.058333 h 1.058333 V 20.6375 H 11.1125 v 1.058333 h 1.058333 1.058333 V 20.6375 19.579166 18.520833 h -1.058333 z m 4.233333,0 v 1.058333 h 1.058333 V 20.6375 H 17.4625 V 19.579166 18.520833 H 16.404166 Z M 17.4625,20.6375 v 1.058333 h 1.058333 V 20.6375 Z m -1.058334,0 h -1.058333 v 1.058333 h 1.058333 z m -1.058333,0 V 19.579166 H 14.2875 V 20.6375 Z m 12.7,-2.116667 v 1.058333 h 0.529166 V 18.520833 Z M 20.6375,19.579166 v 1.058334 1.058333 h 1.058333 V 20.6375 h 1.058333 v -1.058334 h -1.058333 z m 2.116666,1.058334 v 1.058333 H 23.8125 V 20.6375 Z m 0,1.058333 h -1.058333 v 1.058333 h 1.058333 z m -2.116666,0 h -1.058334 v 1.058333 H 20.6375 Z m 4.233333,-2.116667 v 1.058334 1.058333 1.058333 H 25.929166 26.9875 V 21.695833 H 25.929166 V 20.6375 H 26.9875 V 19.579166 H 25.929166 Z M 0,20.6375 v 1.058333 1.058333 H 0.52916666 V 21.695833 20.6375 Z m 2.6458333,0 v 1.058333 H 3.7041666 4.7624999 V 20.6375 H 3.7041666 Z m 0,1.058333 H 1.5875 v 1.058333 H 2.6458333 Z M 6.8791665,20.6375 v 1.058333 H 7.9374999 8.9958332 V 20.6375 H 7.9374999 Z m 21.1666665,1.058333 v 1.058333 h 0.529166 V 21.695833 Z M 3.7041666,22.754166 V 23.8125 h 1.0583333 v -1.058334 z m 2.1166666,0 V 23.8125 h 1.0583333 v -1.058334 z m 3.175,0 V 23.8125 H 10.054166 V 22.754166 Z M 10.054166,23.8125 v 1.058333 H 11.1125 V 23.8125 Z m 1.058334,0 h 1.058333 V 22.754166 H 11.1125 Z m 2.116666,-1.058334 V 23.8125 H 14.2875 15.345833 V 22.754166 H 14.2875 Z m 4.233334,0 V 23.8125 h 1.058333 v -1.058334 z m 1.058333,1.058334 v 1.058333 H 19.579166 20.6375 V 23.8125 h -1.058334 z m 0,1.058333 H 17.4625 v 1.058333 h 1.058333 z M 22.754166,23.8125 v 1.058333 H 23.8125 24.870833 V 23.8125 H 23.8125 Z m 3.175,0 v 1.058333 H 26.9875 V 23.8125 Z m 1.058334,1.058333 v 1.058333 h 1.058333 v -1.058333 z m 1.058333,0 h 0.529166 V 23.8125 H 28.045833 Z M 0,24.870833 v 1.058333 1.058334 h 0.52916666 v -1.058334 -1.058333 z m 1.5875,0 v 1.058333 h 1.0583333 v -1.058333 z m 1.0583333,1.058333 V 26.9875 H 3.7041666 4.7624999 V 25.929166 H 3.7041666 Z m 3.1749999,0 V 26.9875 h 1.0583333 v -1.058334 z m 2.1166667,0 V 26.9875 H 8.9958332 V 25.929166 Z M 8.9958332,26.9875 v 1.058333 0.529166 H 10.054166 V 28.045833 26.9875 Z M 19.579166,25.929166 V 26.9875 H 20.6375 v -1.058334 z m 0,1.058334 H 18.520833 17.4625 v 1.058333 h -1.058334 v 0.529166 h 1.058334 1.058333 v -0.529166 h 1.058333 z m -3.175,1.058333 V 26.9875 h -1.058333 v 1.058333 z m -1.058333,0 H 14.2875 v 0.529166 h 1.058333 z m -1.058333,0 V 26.9875 h -1.058334 v 1.058333 z m -1.058334,0 h -1.058333 v 0.529166 h 1.058333 z m -1.058333,0 V 26.9875 H 11.1125 v 1.058333 z M 22.754166,25.929166 V 26.9875 H 23.8125 V 25.929166 Z M 23.8125,26.9875 v 1.058333 h 1.058333 V 26.9875 Z m 0,1.058333 h -1.058334 v 0.529166 H 23.8125 Z M 25.929166,26.9875 v 1.058333 0.529166 H 26.9875 v -0.529166 h 1.058333 V 26.9875 H 26.9875 Z m 2.116667,1.058333 v 0.529166 h 0.529166 v -0.529166 z m -24.3416664,0 v 0.529166 h 1.0583333 v -0.529166 z m 2.1166666,0 v 0.529166 h 1.0583333 v -0.529166 z" />
    <path
       id="rect498"
       style="fill:#96333d;fill-opacity:1;stroke:none;stroke-width:0.264583;stroke-opacity:1"
       d="M 0.52916665,0.52916671 V 1.5875 H 1.5875 V 0.52916671 Z m 6.34999995,0 V 1.5875 H 7.9374999 V 0.52916671 Z m 5.2916664,0 V 1.5875 h 1.058333 V 0.52916671 Z M 4.7625,1.5875 V 2.6458333 H 5.8208333 V 1.5875 Z m 11.641666,0 v 1.0583333 h 1.058333 V 1.5875 Z m 3.175,0 v 1.0583333 h 1.058333 V 1.5875 Z m 4.233333,0 v 1.0583333 h 1.058334 V 1.5875 Z M 7.9374999,3.7041667 V 4.7625 H 8.9958332 V 3.7041667 Z M 4.7625,4.7625 V 5.8208333 H 5.8208333 V 4.7625 Z m 5.291666,0 v 1.0583333 h 1.058333 V 4.7625 Z m 6.35,0 v 1.0583333 h 1.058333 V 4.7625 Z M 0.52916665,6.8791666 V 7.9374999 H 1.5875 V 6.8791666 Z m 20.10833235,0 v 1.0583333 h 1.058334 V 6.8791666 Z m 5.291667,0 v 1.0583333 h 1.058333 V 6.8791666 Z m -2.116667,1.0583333 v 1.0583333 h 1.058334 V 7.9374999 Z M 5.8208333,8.9958332 V 10.054166 H 6.8791666 V 8.9958332 Z m 4.2333327,0 v 1.0583328 h 1.058333 V 8.9958332 Z m 3.175,0 v 1.0583328 h 1.058333 V 8.9958332 Z m 7.408333,1.0583328 v 1.058333 h 1.058334 V 10.054166 Z M 0.52916665,11.112499 v 1.058334 H 1.5875 v -1.058334 z m 4.23333335,0 v 1.058334 h 1.0583333 v -1.058334 z m 11.641666,0 v 1.058334 h 1.058333 v -1.058334 z m 6.35,0 v 1.058334 h 1.058333 v -1.058334 z m -12.7,1.058334 v 1.058333 h 1.058333 v -1.058333 z m -9.52499935,2.116666 v 1.058334 H 1.5875 v -1.058334 z m 17.99166635,0 v 1.058334 h 1.058333 v -1.058334 z m -9.5249998,1.058334 v 1.058333 h 1.0583328 v -1.058333 z m 3.1749998,0 v 1.058333 h 1.058333 v -1.058333 z m 4.233333,0 v 1.058333 h 1.058333 v -1.058333 z m 7.408333,0 v 1.058333 h 1.058334 V 15.345833 Z M 4.7625,16.404166 v 1.058333 h 1.0583333 v -1.058333 z m 13.758333,1.058333 v 1.058334 h 1.058333 v -1.058334 z m 4.233333,0 v 1.058334 h 1.058333 V 17.462499 Z M 1.5875,18.520833 v 1.058333 h 1.0583333 v -1.058333 z m 7.4083332,0 v 1.058333 h 1.0583328 v -1.058333 z m -3.1749999,2.116666 v 1.058334 h 1.0583333 v -1.058334 z m 7.4083327,0 v 1.058334 h 1.058333 v -1.058334 z m 3.175,1.058334 v 1.058333 h 1.058333 v -1.058333 z m 2.116667,0 v 1.058333 h 1.058333 v -1.058333 z m 5.291666,0 v 1.058333 h 1.058334 v -1.058333 z m -3.175,1.058333 v 1.058333 h 1.058334 V 22.754166 Z M 1.5875,23.812499 v 1.058334 h 1.0583333 v -1.058334 z m 4.2333333,0 v 1.058334 h 1.0583333 v -1.058334 z m 7.4083327,0 v 1.058334 h 1.058333 v -1.058334 z m 2.116667,1.058334 v 1.058333 h 1.058333 v -1.058333 z m 8.466666,0 v 1.058333 h 1.058334 V 24.870833 Z M 0.52916665,25.929166 v 1.058333 H 1.5875 v -1.058333 z m 10.58333235,0 v 1.058333 h 1.058334 v -1.058333 z m 10.583334,0 v 1.058333 h 1.058333 v -1.058333 z"
       sodipodi:nodetypes="ccccccccccccccccccccccccccccccccccccccccccccccccccccccccccccccccccccccccccccccccccccccccccccccccccccccccccccccccccccccccccccccccccccccccccccccccccccccccccccccccccccccccccccccccccccccccccccccccccccccccccccccccccccccccccccccccccccccccccccccccccccc" />
    <path
       id="rect499"
       style="fill:#d96555;fill-opacity:1;stroke:none;stroke-width:0.264583;stroke-opacity:1"
       d="M 0,0.52916666 V 1.5875 H 0.52916666 V 0.52916666 Z m 11.1125,0 V 1.5875 h 1.058333 V 0.52916666 Z m 8.466666,0 V 1.5875 H 20.6375 V 0.52916666 Z m 8.466667,0 V 1.5875 h 0.529166 V 0.52916666 Z M 3.7041666,1.5875 V 2.6458333 H 4.7624999 V 1.5875 Z m 3.1749999,0 V 2.6458333 H 7.9374999 V 1.5875 Z m 8.4666665,0 v 1.0583333 h 1.058333 V 1.5875 Z m 9.525,0 v 1.0583333 h 1.058333 V 1.5875 Z M 4.7624999,3.7041666 V 4.7624999 H 5.8208332 V 3.7041666 Z m 5.2916661,0 V 4.7624999 H 11.1125 V 3.7041666 Z m 11.641667,0 v 1.0583333 h 1.058333 V 3.7041666 Z m 4.233333,0 V 4.7624999 H 26.9875 V 3.7041666 Z m 2.116667,0 v 1.0583333 h 0.529166 V 3.7041666 Z M 14.2875,4.7624999 v 1.0583333 h 1.058333 V 4.7624999 Z M 0.52916666,5.8208332 V 6.8791665 H 1.5875 V 5.8208332 Z m 15.87499934,0 V 6.8791665 H 17.4625 V 5.8208332 Z M 5.8208332,7.9374999 V 8.9958332 H 6.8791665 V 7.9374999 Z m 4.2333328,0 V 8.9958332 H 11.1125 V 7.9374999 Z m 10.583334,0 v 1.0583333 h 1.058333 V 7.9374999 Z m 5.291666,0 V 8.9958332 H 26.9875 V 7.9374999 Z M 14.2875,8.9958332 v 1.0583328 h 1.058333 V 8.9958332 Z m 5.291666,1.0583328 V 11.1125 H 20.6375 v -1.058334 z m 3.175,0 V 11.1125 H 23.8125 V 10.054166 Z M 1.5875,11.1125 v 1.058333 H 2.6458333 V 11.1125 Z m 4.2333332,0 v 1.058333 H 6.8791665 V 11.1125 Z m 9.5249998,0 v 1.058333 h 1.058333 V 11.1125 Z m 11.641667,0 v 1.058333 h 1.058333 V 11.1125 Z m -15.875,1.058333 v 1.058333 h 1.058333 v -1.058333 z m 1.058333,2.116667 v 1.058333 h 1.058333 V 14.2875 Z m 15.875,0 v 1.058333 h 0.529166 V 14.2875 Z m 0,1.058333 H 26.9875 v 1.058333 h 1.058333 z m -27.51666634,0 v 1.058333 H 1.5875 v -1.058333 z m 4.23333324,0 v 1.058333 h 1.0583333 v -1.058333 z m 3.175,0 v 1.058333 h 1.0583333 v -1.058333 z m 9.5250001,0 v 1.058333 h 1.058333 v -1.058333 z m 5.291666,0 v 1.058333 H 23.8125 V 15.345833 Z M 14.2875,17.4625 v 1.058333 h 1.058333 V 17.4625 Z m 4.233333,1.058333 v 1.058333 h 1.058333 v -1.058333 z m 4.233333,0 v 1.058333 H 23.8125 V 18.520833 Z M 1.5875,19.579166 V 20.6375 h 1.0583333 v -1.058334 z m 4.2333332,0 V 20.6375 h 1.0583333 v -1.058334 z m 3.175,0 V 20.6375 H 10.054166 V 19.579166 Z M 28.045833,20.6375 v 1.058333 h 0.529166 V 20.6375 Z m -14.816667,1.058333 v 1.058333 H 14.2875 v -1.058333 z m 5.291667,1.058333 V 23.8125 h 1.058333 v -1.058334 z m 5.291667,0 V 23.8125 h 1.058333 V 22.754166 Z M 0.52916666,23.8125 v 1.058333 H 1.5875 V 23.8125 Z m 4.23333324,0 v 1.058333 H 5.8208332 V 23.8125 Z m 7.4083331,0 v 1.058333 h 1.058333 V 23.8125 Z m 3.175,0 v 1.058333 h 1.058333 V 23.8125 Z m 0,1.058333 H 14.2875 v 1.058333 h 1.058333 z m 6.35,0 v 1.058333 h 1.058333 v -1.058333 z m 3.175,0 v 1.058333 h 1.058333 V 24.870833 Z M 10.054166,25.929166 V 26.9875 H 11.1125 V 25.929166 Z M 0.52916666,26.9875 v 1.058333 H 1.5875 V 26.9875 Z m 6.34999984,1.058333 v 0.529166 h 1.0583334 v -0.529166 z m 6.3499995,0 v 0.529166 H 14.2875 v -0.529166 z m 10.583334,0 v 0.529166 h 1.058333 v -0.529166 z m 3.175,0 v 0.529166 h 1.058333 v -0.529166 z"
       sodipodi:nodetypes="ccccccccccccccccccccccccccccccccccccccccccccccccccccccccccccccccccccccccccccccccccccccccccccccccccccccccccccccccccccccccccccccccccccccccccccccccccccccccccccccccccccccccccccccccccccccccccccccccccccccccccccccccccccccccccccccccccccccccccccccccccccccccccccccccccccccccccccccccccccccccccccccccccccccc" />
    <path
       id="rect500"
       style="fill:#ac3440;fill-opacity:1;stroke:none;stroke-width:0.264583;stroke-opacity:1"
       d="M 0,0 V 0.52916666 H 0.52916666 V 0 Z m 11.1125,0 v 0.52916666 h 1.058333 V 0 Z m 7.408333,0.52916666 V 1.5875 h 1.058333 V 0.52916666 Z M 5.8208332,1.5875 V 2.6458333 H 6.8791665 V 1.5875 Z M 3.7041666,2.6458333 V 3.7041666 4.7624999 H 4.7624999 V 3.7041666 2.6458333 Z m 11.6416664,0 v 1.0583333 h 1.058333 V 2.6458333 Z m 9.525,0 v 1.0583333 h 1.058333 V 2.6458333 Z m 3.175,0 v 1.0583333 h 0.529166 V 2.6458333 Z M 8.9958332,3.7041666 V 4.7624999 H 10.054166 V 3.7041666 Z m 13.7583328,0 V 4.7624999 H 23.8125 V 3.7041666 Z M 0,5.8208332 V 6.8791665 H 0.52916666 V 5.8208332 Z m 14.2875,0 v 1.0583333 h 1.058333 1.058333 V 5.8208332 h -1.058333 z m 12.7,0 v 1.0583333 h 1.058333 V 5.8208332 Z M 6.8791665,7.9374999 V 8.9958332 H 7.9374999 V 7.9374999 Z m 4.2333335,0 v 1.0583333 h 1.058333 V 7.9374999 Z m 8.466666,0 V 8.9958332 10.054166 H 20.6375 V 8.9958332 7.9374999 Z m 5.291667,0 v 1.0583333 h 1.058333 V 7.9374999 Z m 3.175,0 v 1.0583333 h 0.529166 V 7.9374999 Z M 5.8208332,10.054166 V 11.1125 h 1.0583333 v -1.058334 z m 8.4666668,0 V 11.1125 h 1.058333 v -1.058334 z m 7.408333,0 V 11.1125 h 1.058333 V 10.054166 Z M 11.1125,11.1125 v 1.058333 h 1.058333 V 11.1125 Z m -9.525,1.058333 v 1.058333 h 1.0583333 v -1.058333 z m 13.758333,0 v 1.058333 h 1.058333 v -1.058333 z m 11.641667,0 v 1.058333 h 1.058333 V 12.170833 Z M 11.1125,14.2875 v 1.058333 h 1.058333 V 14.2875 Z m 15.875,0 v 1.058333 h 1.058333 V 14.2875 Z M 0,15.345833 v 1.058333 h 0.52916666 v -1.058333 z m 3.7041666,0 v 1.058333 h 1.0583333 v -1.058333 z m 4.2333333,1.058333 V 17.4625 h 1.0583333 v -1.058334 z m 9.5250001,0 V 17.4625 h 1.058333 v -1.058334 z m 5.291666,0 V 17.4625 H 23.8125 v -1.058334 z m 5.291667,0 V 17.4625 h 0.529166 v -1.058334 z m -12.7,1.058334 v 1.058333 h 1.058333 V 17.4625 Z m 6.35,1.058333 v 1.058333 h 1.058333 V 18.520833 Z M 2.6458333,19.579166 V 20.6375 h 1.0583333 v -1.058334 z m 4.2333332,0 V 20.6375 H 7.9374999 8.9958332 V 19.579166 H 7.9374999 Z m 21.1666665,0 V 20.6375 h 0.529166 v -1.058334 z m -15.875,2.116667 v 1.058333 1.058334 h 1.058333 v -1.058334 -1.058333 z m 5.291667,0 v 1.058333 h 1.058333 V 21.695833 Z M 4.7624999,22.754166 V 23.8125 h 1.0583333 v -1.058334 z m 14.8166661,0 V 23.8125 H 20.6375 v -1.058334 z m 5.291667,0 v 1.058334 1.058333 h 1.058333 V 23.8125 22.754166 Z M 14.2875,23.8125 v 1.058333 h 1.058333 V 23.8125 Z M 0.52916666,24.870833 v 1.058333 H 1.5875 v -1.058333 z m 22.22499934,0 v 1.058333 H 23.8125 V 24.870833 Z M 17.4625,25.929166 V 26.9875 h 1.058333 V 25.929166 Z M 0,26.9875 v 1.058333 H 0.52916666 V 26.9875 Z m 10.054166,0 v 1.058333 H 11.1125 V 26.9875 Z m 1.058334,1.058333 v 0.529166 h 1.058333 v -0.529166 z m -3.1750001,0 v 0.529166 h 1.0583333 v -0.529166 z m 11.6416661,0 v 0.529166 H 20.6375 v -0.529166 z m 5.291667,0 v 0.529166 h 1.058333 v -0.529166 z"
       sodipodi:nodetypes="ccccccccccccccccccccccccccccccccccccccccccccccccccccccccccccccccccccccccccccccccccccccccccccccccccccccccccccccccccccccccccccccccccccccccccccccccccccccccccccccccccccccccccccccccccccccccccccccccccccccccccccccccccccccccccccccccccccccccccccccccccccccccccccccccccccccccccccccccccccc" />
    <path
       id="rect502"
       style="fill:#d23d4c;fill-opacity:1;stroke:none;stroke-width:0.264583;stroke-opacity:1"
       d="M 19.579166,2.7407407e-8 V 0.52916671 h 1.058333 V 2.7407407e-8 Z M 10.054166,0.52916671 V 1.5875 h 1.058333 V 0.52916671 Z M 2.6458333,1.5875 V 2.6458333 H 3.7041667 V 1.5875 Z m 11.6416657,0 v 1.0583333 h 1.058334 V 1.5875 Z m 11.641667,0 v 1.0583333 h 1.058333 V 1.5875 Z M 6.8791666,2.6458333 V 3.7041667 H 7.9374999 V 2.6458333 Z M 0.52916665,4.7625 V 5.8208333 H 1.5875 V 4.7625 Z m 12.69999935,0 v 1.0583333 h 1.058333 V 4.7625 Z m 8.466667,0 v 1.0583333 h 1.058333 V 4.7625 Z m 4.233333,0 v 1.0583333 h 1.058333 V 4.7625 Z M 5.8208333,6.8791666 V 7.9374999 H 6.8791666 V 6.8791666 Z m 4.2333327,0 v 1.0583333 h 1.058333 V 6.8791666 Z m 6.35,0 v 1.0583333 h 1.058333 V 6.8791666 Z m 6.35,2.1166666 v 1.0583328 h 1.058333 V 8.9958332 Z m -4.233333,1.0583328 v 1.058333 h 1.058333 V 10.054166 Z M 2.6458333,11.112499 v 1.058334 h 1.0583334 v -1.058334 z m 4.2333333,0 v 1.058334 h 1.0583333 v -1.058334 z m 19.0499994,0 v 1.058334 h 1.058333 v -1.058334 z m -13.758333,1.058334 v 1.058333 1.058333 h 1.058333 V 13.229166 12.170833 Z M 4.7625,14.287499 v 1.058334 h 1.0583333 v -1.058334 z m 16.933333,1.058334 v 1.058333 h 1.058333 v -1.058333 z m 4.233333,0 v 1.058333 h 1.058333 V 15.345833 Z M 0.52916665,16.404166 v 1.058333 H 1.5875 v -1.058333 z m 5.29166665,2.116667 v 1.058333 h 1.0583333 v -1.058333 z m 8.4666657,0 v 1.058333 h 1.058334 v -1.058333 z m 4.233334,1.058333 v 1.058333 h 1.058333 v -1.058333 z m 4.233333,0 v 1.058333 h 1.058333 V 19.579166 Z M 1.5875,20.637499 v 1.058334 h 1.0583333 v -1.058334 z m 7.4083332,0 v 1.058334 h 1.0583328 v -1.058334 z m 6.3499998,2.116667 v 1.058333 h 1.058333 V 22.754166 Z M 0,23.812499 v 1.058334 h 0.52916665 v -1.058334 z m 3.7041667,0 v 1.058334 H 4.7625 v -1.058334 z m 7.4083323,0 v 1.058334 h 1.058334 v -1.058334 z m 10.583334,0 v 1.058334 h 1.058333 v -1.058334 z m -8.466667,1.058334 v 1.058333 h 1.058333 v -1.058333 z m 12.7,0 v 1.058333 h 1.058333 V 24.870833 Z M 8.9958332,25.929166 v 1.058333 h 1.0583328 v -1.058333 z m 9.5249998,0 v 1.058333 h 1.058333 v -1.058333 z"
       sodipodi:nodetypes="cccccccccccccccccccccccccccccccccccccccccccccccccccccccccccccccccccccccccccccccccccccccccccccccccccccccccccccccccccccccccccccccccccccccccccccccccccccccccccccccccccccccccccccccccccccccccccccccc" />
    <path
       id="rect503"
       style="fill:#e15e49;fill-opacity:1;stroke:none;stroke-width:0.264583;stroke-opacity:1"
       d="M 7.9374999,2.7407407e-8 V 0.52916671 H 8.9958332 V 2.7407407e-8 Z m 19.0499991,0 V 0.52916671 h 1.058333 V 2.7407407e-8 Z M 17.462499,0.52916671 V 1.5875 h 1.058334 V 0.52916671 Z m 5.291667,0 V 1.5875 h 1.058333 V 0.52916671 Z M 13.229166,1.5875 v 1.0583333 h 1.058333 V 1.5875 Z m 7.408333,1.0583333 v 1.0583334 h 1.058334 V 2.6458333 Z M 2.6458333,3.7041667 V 4.7625 H 3.7041667 V 3.7041667 Z m 14.8166657,0 V 4.7625 h 1.058334 V 3.7041667 Z m -6.35,2.1166666 v 1.0583333 h 1.058334 V 5.8208333 Z M 1.5875,7.9374999 V 8.9958332 H 2.6458333 V 7.9374999 Z m 10.583333,0 v 1.0583333 h 1.058333 V 7.9374999 Z m 6.35,0 v 1.0583333 h 1.058333 V 7.9374999 Z M 0,10.054166 v 1.058333 h 0.52916665 v -1.058333 z m 8.9958332,0 v 1.058333 h 1.0583328 v -1.058333 z m 5.2916658,1.058333 v 1.058334 h 1.058334 V 11.112499 Z M 3.7041667,12.170833 v 1.058333 H 4.7625 v -1.058333 z m 20.1083323,0 v 1.058333 h 1.058334 V 12.170833 Z M 1.5875,13.229166 v 1.058333 h 1.0583333 v -1.058333 z m 25.399999,0 v 1.058333 h 1.058333 v -1.058333 z m -16.933333,1.058333 v 1.058334 h 1.058333 v -1.058334 z m 5.291667,0 v 1.058334 h 1.058333 v -1.058334 z m 9.525,0 v 1.058334 h 1.058333 v -1.058334 z m -11.641667,2.116667 v 1.058333 h 1.058333 v -1.058333 z m 6.35,0 v 1.058333 h 1.058333 V 16.404166 Z M 0.52916665,17.462499 v 1.058334 H 1.5875 v -1.058334 z m 5.29166665,0 v 1.058334 h 1.0583333 v -1.058334 z m 4.2333327,0 v 1.058334 h 1.058333 v -1.058334 z m 16.933333,1.058334 v 1.058333 h 1.058333 v -1.058333 z m -22.224999,3.175 v 1.058333 h 1.0583333 v -1.058333 z m 6.349999,0 v 1.058333 h 1.058334 v -1.058333 z m -8.4666657,1.058333 v 1.058333 h 1.0583334 v -1.058333 z m 23.2833327,0 v 1.058333 h 1.058333 V 22.754166 Z M 6.8791666,24.870833 v 1.058333 h 1.0583333 v -1.058333 z m 5.2916664,0 v 1.058333 h 1.058333 v -1.058333 z m 4.233333,1.058333 v 1.058333 h 1.058333 V 25.929166 Z M 4.7625,26.987499 v 1.058333 h 1.0583333 v -1.058333 z m 15.874999,0 v 1.058333 h 1.058334 v -1.058333 z"
       sodipodi:nodetypes="ccccccccccccccccccccccccccccccccccccccccccccccccccccccccccccccccccccccccccccccccccccccccccccccccccccccccccccccccccccccccccccccccccccccccccccccccccccccccccccccccccccccccccccccccccccccccc" />
    <path
       id="rect506"
       style="fill:#c84855;fill-opacity:1;stroke:none;stroke-width:0.264583;stroke-opacity:1"
       d="M 4.7624999,0.52916666 V 1.5875 H 5.8208332 V 0.52916666 Z m 3.175,0 V 1.5875 H 8.9958332 V 0.52916666 Z m 8.4666661,0 V 1.5875 H 17.4625 V 0.52916666 Z m 7.408334,0 V 1.5875 h 1.058333 V 0.52916666 Z m 3.175,0 V 1.5875 h 1.058333 V 0.52916666 Z M 0.52916666,1.5875 V 2.6458333 H 1.5875 V 1.5875 Z m 11.64166634,0 v 1.0583333 h 1.058333 V 1.5875 Z m 8.466667,0 v 1.0583333 h 1.058333 V 1.5875 Z M 1.5875,3.7041666 V 4.7624999 H 2.6458333 V 3.7041666 Z M 5.8208332,4.7624999 V 5.8208332 H 6.8791665 V 4.7624999 Z m 2.1166667,0 V 5.8208332 H 8.9958332 V 4.7624999 Z m 3.1750001,0 v 1.0583333 h 1.058333 V 4.7624999 Z m 6.35,0 v 1.0583333 h 1.058333 V 4.7624999 Z m 2.116666,0 V 5.8208332 H 20.6375 V 4.7624999 Z m 8.466667,1.0583333 v 1.0583333 h 0.529166 V 5.8208332 Z M 1.5875,6.8791665 V 7.9374999 H 2.6458333 V 6.8791665 Z m 20.108333,0 v 1.0583334 h 1.058333 V 6.8791665 Z m 2.116667,0 v 1.0583334 h 1.058333 V 6.8791665 Z M 13.229166,7.9374999 V 8.9958332 H 14.2875 V 7.9374999 Z m 4.233334,0 v 1.0583333 h 1.058333 V 7.9374999 Z M 4.7624999,8.9958332 V 10.054166 H 5.8208332 V 8.9958332 Z m 4.2333333,0 V 10.054166 H 10.054166 V 8.9958332 Z m 19.0499998,0 v 1.0583328 h 0.529166 V 8.9958332 Z M 0.52916666,10.054166 V 11.1125 H 1.5875 v -1.058334 z m 15.87499934,0 V 11.1125 H 17.4625 V 10.054166 Z M 20.6375,11.1125 v 1.058333 h 1.058333 V 11.1125 Z m 3.175,0 v 1.058333 h 1.058333 V 11.1125 Z M 4.7624999,12.170833 v 1.058333 h 1.0583333 v -1.058333 z m 9.5250001,0 v 1.058333 h 1.058333 v -1.058333 z m 13.758333,0 v 1.058333 h 0.529166 V 12.170833 Z M 1.5875,14.2875 v 1.058333 H 2.6458333 V 14.2875 Z m 7.4083332,0 v 1.058333 H 10.054166 V 14.2875 Z m 7.4083328,0 v 1.058333 H 17.4625 V 14.2875 Z m 7.408334,0 v 1.058333 h 1.058333 V 14.2875 Z m -10.583334,1.058333 v 1.058333 H 14.2875 V 15.345833 Z M 5.8208332,16.404166 V 17.4625 H 6.8791665 V 16.404166 Z M 19.579166,17.4625 v 1.058333 H 20.6375 V 17.4625 Z m 4.233334,0 v 1.058333 h 1.058333 V 17.4625 Z m 4.233333,0 v 1.058333 h 0.529166 V 17.4625 Z M 0.52916666,18.520833 v 1.058333 H 1.5875 v -1.058333 z m 9.52499934,0 v 1.058333 H 11.1125 V 18.520833 Z M 26.9875,19.579166 V 20.6375 h 1.058333 V 19.579166 Z M 4.7624999,20.6375 v 1.058333 H 5.8208332 V 20.6375 Z m 9.5250001,0 v 1.058333 h 1.058333 V 20.6375 Z m 2.116666,0 v 1.058333 H 17.4625 V 20.6375 Z m -6.35,1.058333 v 1.058333 H 11.1125 v -1.058333 z m 10.583334,0 v 1.058333 h 1.058333 v -1.058333 z m 2.116666,0 v 1.058333 H 23.8125 V 21.695833 Z M 1.5875,22.754166 V 23.8125 h 1.0583333 v -1.058334 z m 25.4,0 V 23.8125 h 1.058333 0.529166 V 22.754166 H 28.045833 Z M 8.9958332,23.8125 v 1.058333 H 10.054166 V 23.8125 Z m -3.175,1.058333 v 1.058333 h 1.0583333 v -1.058333 z m 5.2916668,0 v 1.058333 h 1.058333 v -1.058333 z m -9.525,1.058333 V 26.9875 h 1.0583333 v -1.058334 z m 13.758333,0 V 26.9875 h 1.058333 v -1.058334 z m 5.291667,0 V 26.9875 h 1.058333 v -1.058334 z m 3.175,0 V 26.9875 h 1.058333 v -1.058334 z m 4.233333,0 V 26.9875 h 0.529166 V 25.929166 Z M 0,28.045833 v 0.529166 h 0.52916666 v -0.529166 z m 1.5875,0 v 0.529166 h 1.0583333 v -0.529166 z m 3.1749999,0 v 0.529166 h 1.0583333 v -0.529166 z m 5.2916661,0 v 0.529166 H 11.1125 v -0.529166 z m 5.291667,0 v 0.529166 h 1.058333 v -0.529166 z m 3.175,0 v 0.529166 h 1.058333 v -0.529166 z m 3.175,0 v 0.529166 h 1.058333 v -0.529166 z" />
    <path
       id="rect507"
       style="fill:#dd4045;fill-opacity:1;stroke:none;stroke-width:0.264583;stroke-opacity:1"
       d="M 3.7041666,0 V 0.52916666 H 4.7624999 V 0 Z M 15.345833,0 v 0.52916666 h 1.058333 V 0 Z m 9.525,0 v 0.52916666 h 1.058333 V 0 Z M 1.5875,0.52916666 V 1.5875 H 2.6458333 V 0.52916666 Z m 20.108333,0 V 1.5875 h 1.058333 V 0.52916666 Z M 8.9958332,1.5875 V 2.6458333 H 10.054166 V 1.5875 Z M 0,2.6458333 V 3.7041666 H 0.52916666 V 2.6458333 Z m 11.1125,0 v 1.0583333 h 1.058333 V 2.6458333 Z m 1.058333,1.0583333 v 1.0583333 h 1.058333 V 3.7041666 Z m -5.2916665,0 V 4.7624999 H 7.9374999 V 3.7041666 Z m 12.6999995,0 V 4.7624999 H 20.6375 V 3.7041666 Z m 4.233334,0 v 1.0583333 h 1.058333 V 3.7041666 Z M 2.6458333,5.8208332 V 6.8791665 H 3.7041666 V 5.8208332 Z m 2.1166666,0 V 6.8791665 H 5.8208332 V 5.8208332 Z m 13.7583331,0 v 1.0583333 h 1.058333 V 5.8208332 Z m 2.116667,0 v 1.0583333 h 1.058333 V 5.8208332 Z m -6.35,1.0583333 v 1.0583334 h 1.058333 V 6.8791665 Z m 13.758333,0 v 1.0583334 h 0.529166 V 6.8791665 Z M 3.7041666,7.9374999 V 8.9958332 H 4.7624999 V 7.9374999 Z m 4.2333333,0 V 8.9958332 H 8.9958332 V 7.9374999 Z m 14.8166661,0 V 8.9958332 H 23.8125 V 7.9374999 Z M 1.5875,8.9958332 V 10.054166 H 2.6458333 V 8.9958332 Z m 13.758333,0 v 1.0583328 h 1.058333 V 8.9958332 Z m 11.641667,0 v 1.0583328 h 1.058333 V 8.9958332 Z M 24.870833,10.054166 V 11.1125 h 1.058333 V 10.054166 Z M 17.4625,11.1125 v 1.058333 h 1.058333 V 11.1125 Z m 2.116666,1.058333 v 1.058333 H 20.6375 V 12.170833 Z M 20.6375,13.229166 V 14.2875 h 1.058333 v -1.058334 z m -14.8166668,0 V 14.2875 h 1.0583333 v -1.058334 z m 2.1166667,0 V 14.2875 h 1.0583333 v -1.058334 z m 9.5250001,0 V 14.2875 h 1.058333 v -1.058334 z m 5.291666,0 V 14.2875 H 23.8125 V 13.229166 Z M 14.2875,14.2875 v 1.058333 h 1.058333 V 14.2875 Z M 2.6458333,15.345833 v 1.058333 h 1.0583333 v -1.058333 z m 4.2333332,0 v 1.058333 H 7.9374999 V 15.345833 Z M 12.170833,17.4625 v 1.058333 h 1.058333 V 17.4625 Z m 4.233333,0 v 1.058333 H 17.4625 V 17.4625 Z m 10.583334,0 v 1.058333 h 1.058333 V 17.4625 Z m -6.35,1.058333 v 1.058333 h 1.058333 v -1.058333 z m 4.233333,0 v 1.058333 h 1.058333 V 18.520833 Z M 0,19.579166 V 20.6375 h 0.52916666 v -1.058334 z m 3.7041666,0 V 20.6375 h 1.0583333 v -1.058334 z m 7.4083334,0 V 20.6375 h 1.058333 v -1.058334 z m 2.116666,0 V 20.6375 H 14.2875 V 19.579166 Z M 23.8125,20.6375 v 1.058333 h 1.058333 V 20.6375 Z m 2.116666,0 v 1.058333 H 26.9875 V 20.6375 Z M 0.52916666,21.695833 v 1.058333 H 1.5875 v -1.058333 z m 14.81666634,0 v 1.058333 h 1.058333 V 21.695833 Z M 7.9374999,22.754166 V 23.8125 h 1.0583333 v -1.058334 z m 13.7583331,0 V 23.8125 h 1.058333 V 22.754166 Z M 17.4625,23.8125 v 1.058333 h 1.058333 V 23.8125 Z m -9.5250001,1.058333 v 1.058333 h 1.0583333 v -1.058333 z m 11.6416661,0 v 1.058333 H 20.6375 v -1.058333 z m 8.466667,0 v 1.058333 h 0.529166 v -1.058333 z m 0,1.058333 H 26.9875 V 26.9875 h 1.058333 z m 0,1.058334 v 1.058333 h 0.529166 V 26.9875 Z M 4.7624999,25.929166 V 26.9875 H 5.8208332 V 25.929166 Z M 2.6458333,26.9875 v 1.058333 0.529166 H 3.7041666 V 28.045833 26.9875 Z m 11.6416667,0 v 1.058333 h 1.058333 V 26.9875 Z m 10.583333,0 v 1.058333 h 1.058333 V 26.9875 Z M 0.52916666,28.045833 v 0.529166 H 1.5875 v -0.529166 z m 20.10833334,0 v 0.529166 h 1.058333 v -0.529166 z"
       sodipodi:nodetypes="cccccccccccccccccccccccccccccccccccccccccccccccccccccccccccccccccccccccccccccccccccccccccccccccccccccccccccccccccccccccccccccccccccccccccccccccccccccccccccccccccccccccccccccccccccccccccccccccccccccccccccccccccccccccccccccccccccccccccccccccccccccccccccccccccccccccccccccccccccccccccccccccccccccccccccccccccccccccc" />
    <path
       id="rect508"
       style="fill:#d64352;fill-opacity:1;stroke:none;stroke-width:0.264583;stroke-opacity:1"
       d="M 3.7041667,0.52916671 V 1.5875 H 4.7625 V 0.52916671 Z m 11.6416663,0 V 1.5875 h 1.058333 V 0.52916671 Z m 5.291666,0 V 1.5875 h 1.058334 V 0.52916671 Z m 4.233334,0 V 1.5875 h 1.058333 V 0.52916671 Z M 0,1.5875 V 2.6458333 H 0.52916665 V 1.5875 Z m 7.9374999,0 V 2.6458333 H 8.9958332 V 1.5875 Z m 3.1749991,0 v 1.0583333 h 1.058334 V 1.5875 Z m 15.875,0 v 1.0583333 h 1.058333 V 1.5875 Z M 0.52916665,3.7041667 V 4.7625 H 1.5875 V 3.7041667 Z m 5.29166665,0 V 4.7625 H 6.8791666 V 3.7041667 Z m 5.2916657,0 V 4.7625 h 1.058334 V 3.7041667 Z m 3.175,0 V 4.7625 h 1.058334 V 3.7041667 Z m 6.35,0 V 4.7625 h 1.058334 V 3.7041667 Z m 4.233334,0 V 4.7625 h 1.058333 V 3.7041667 Z M 1.5875,5.8208333 V 6.8791666 H 2.6458333 V 5.8208333 Z m 15.874999,0 v 1.0583333 h 1.058334 V 5.8208333 Z M 4.7625,7.9374999 V 8.9958332 H 5.8208333 V 7.9374999 Z m 4.2333332,0 V 8.9958332 H 10.054166 V 7.9374999 Z m 5.2916658,0 v 1.0583333 h 1.058334 V 7.9374999 Z m 2.116667,0 v 1.0583333 h 1.058333 V 7.9374999 Z m 5.291667,0 v 1.0583333 h 1.058333 V 7.9374999 Z M 1.5875,10.054166 v 1.058333 h 1.0583333 v -1.058333 z m 13.758333,0 v 1.058333 h 1.058333 v -1.058333 z m 8.466666,0 v 1.058333 h 1.058334 v -1.058333 z m 3.175,0 v 1.058333 h 1.058333 v -1.058333 z m -7.408333,1.058333 v 1.058334 h 1.058333 V 11.112499 Z M 5.8208333,12.170833 v 1.058333 h 1.0583333 v -1.058333 z m 2.1166666,2.116666 v 1.058334 h 1.0583333 v -1.058334 z m 5.2916661,0 v 1.058334 h 1.058333 v -1.058334 z m 4.233333,0 v 1.058334 h 1.058334 v -1.058334 z m 5.291667,0 v 1.058334 h 1.058333 V 14.287499 Z M 1.5875,15.345833 v 1.058333 h 1.0583333 v -1.058333 z m 4.2333333,0 v 1.058333 h 1.0583333 v -1.058333 z m 21.1666657,1.058333 v 1.058333 h 1.058333 v -1.058333 z m -13.758333,1.058333 v 1.058334 h 1.058333 v -1.058334 z m 4.233333,0 v 1.058334 h 1.058334 v -1.058334 z m 2.116667,1.058334 v 1.058333 h 1.058333 v -1.058333 z m 4.233333,0 v 1.058333 h 1.058334 V 18.520833 Z M 0.52916665,19.579166 v 1.058333 H 1.5875 v -1.058333 z m 4.23333335,0 v 1.058333 h 1.0583333 v -1.058333 z m 5.291666,0 v 1.058333 h 1.058333 v -1.058333 z m 16.933333,1.058333 v 1.058334 h 1.058333 V 20.637499 Z M 8.9958332,21.695833 v 1.058333 h 1.0583328 v -1.058333 z m 5.2916658,0 v 1.058333 h 1.058334 V 21.695833 Z M 0.52916665,22.754166 v 1.058333 H 1.5875 v -1.058333 z m 22.22499935,0 v 1.058333 h 1.058333 V 22.754166 Z M 7.9374999,23.812499 v 1.058334 h 1.0583333 v -1.058334 z m 8.4666661,0 v 1.058334 h 1.058333 V 23.812499 Z M 4.7625,24.870833 v 1.058333 h 1.0583333 v -1.058333 z m 5.291666,0 v 1.058333 h 1.058333 v -1.058333 z m 10.583333,0 v 1.058333 h 1.058334 v -1.058333 z m -6.35,1.058333 v 1.058333 h 1.058334 v -1.058333 z m 10.583334,0 v 1.058333 h 1.058333 V 25.929166 Z M 1.5875,26.987499 v 1.058333 h 1.0583333 v -1.058333 z"
       sodipodi:nodetypes="cccccccccccccccccccccccccccccccccccccccccccccccccccccccccccccccccccccccccccccccccccccccccccccccccccccccccccccccccccccccccccccccccccccccccccccccccccccccccccccccccccccccccccccccccccccccccccccccccccccccccccccccccccccccccccccccccccccccccccccccccccccccccccccccccccccccccccccc" />
  </g>
  <g
     inkscape:groupmode="layer"
     id="layer2"
     inkscape:label="color"
     style="display:none"
     sodipodi:insensitive="true">
    <path
       id="path1284"
       style="fill:#000000;fill-opacity:0.363838;stroke:none;stroke-width:0.634999;stroke-opacity:1"
       d="m 10.054166,-18.25625 v -1.072915 a 0.25,0.25 135 0 1 0.25,-0.25 H 11.1125 V -20.3875 a 0.25,0.25 135 0 1 0.25,-0.25 h 5.85 a 0.25,0.25 45 0 1 0.25,0.25 v 0.808335 h 0.808333 a 0.25,0.25 45 0 1 0.25,0.25 v 1.072915 h -1.058333 -6.35 z"
       transform="matrix(1,0,0,-1,-3.8968106e-7,0.52916692)"
       sodipodi:nodetypes="ccccccccccc"
       inkscape:path-effect="#path-effect1285"
       inkscape:original-d="m 10.054166,-18.25625 v -1.322915 H 11.1125 V -20.6375 h 6.35 v 1.058335 h 1.058333 v 1.322915 h -1.058333 -6.35 z" />
    <path
       id="rect486"
       style="fill:#c79c54;fill-opacity:1;stroke:none;stroke-width:0.634999;stroke-opacity:1"
       d="m 10.054166,-18.25625 v -1.072915 a 0.25,0.25 135 0 1 0.25,-0.25 H 11.1125 V -20.3875 a 0.25,0.25 135 0 1 0.25,-0.25 h 5.85 a 0.25,0.25 45 0 1 0.25,0.25 v 0.808335 h 0.808333 a 0.25,0.25 45 0 1 0.25,0.25 v 1.072915 h -1.058333 -6.35 z"
       transform="scale(1,-1)"
       sodipodi:nodetypes="ccccccccccc"
       inkscape:path-effect="#path-effect492"
       inkscape:original-d="m 10.054166,-18.25625 v -1.322915 H 11.1125 V -20.6375 h 6.35 v 1.058335 h 1.058333 v 1.322915 h -1.058333 -6.35 z" />
    <path
       id="rect484"
       style="fill:#f9dba9;fill-opacity:1;stroke:none;stroke-width:1.70978;stroke-opacity:1"
       d="m 11.1125,8.1874999 v 0.8083333 h -0.808334 a 0.25,0.25 135 0 0 -0.25,0.25 v 9.0249998 a 0.25,0.25 45 0 0 0.25,0.25 H 11.1125 v 0.808333 a 0.25,0.25 45 0 0 0.25,0.25 h 5.85 a 0.25,0.25 135 0 0 0.25,-0.25 v -0.808333 h 0.808333 a 0.25,0.25 135 0 0 0.25,-0.25 V 9.2458332 a 0.25,0.25 45 0 0 -0.25,-0.25 H 17.4625 V 8.1874999 a 0.25,0.25 45 0 0 -0.25,-0.25 l -5.85,0 a 0.25,0.25 135 0 0 -0.25,0.25 z"
       inkscape:path-effect="#path-effect491"
       inkscape:original-d="M 11.1125,7.9374999 V 8.9958332 H 10.054166 V 18.520833 H 11.1125 v 1.058333 h 6.35 v -1.058333 h 1.058333 V 8.9958332 H 17.4625 V 7.9374999 Z" />
    <rect
       style="fill:#232433;fill-opacity:1;stroke:none;stroke-width:0.264583;stroke-opacity:1"
       id="rect491"
       width="6.3499999"
       height="9.5249996"
       x="11.1125"
       y="8.9958334" />
    <path
       style="fill:#292a3c;fill-opacity:1;stroke:none;stroke-width:0.264583;stroke-opacity:1"
       d="m 11.1125,8.9958327 0.529166,0.5291667 V 17.991665 L 11.1125,18.520832 Z"
       id="path492" />
    <path
       style="fill:#292a3c;fill-opacity:1;stroke:none;stroke-width:0.264583;stroke-opacity:1"
       d="m 17.462499,8.9958327 -0.529166,0.5291667 v 8.4666656 l 0.529166,0.529167 z"
       id="path493" />
    <path
       style="fill:#131428;fill-opacity:1;stroke:none;stroke-width:0.264583;stroke-opacity:1"
       d="m 11.112499,8.9958333 0.529167,0.529166 h 5.291667 L 17.4625,8.9958333 Z"
       id="path494"
       sodipodi:nodetypes="ccccc" />
    <path
       style="fill:#36374a;fill-opacity:1;stroke:none;stroke-width:0.264583;stroke-opacity:1"
       d="m 11.112499,18.520831 0.529167,-0.529166 h 5.291667 l 0.529167,0.529166 z"
       id="path495"
       sodipodi:nodetypes="ccccc" />
    <path
       id="path929"
       style="fill:#c79c54;fill-opacity:1;stroke:none;stroke-width:0.264583;stroke-opacity:1"
       d="m 13.229166,10.833332 v 0.808333 h 1.058334 1.058333 v -0.808333 a 0.25,0.25 0 0 0 -0.25,-0.25 H 14.2875 13.479166 a 0.25,0.25 0 0 0 -0.25,0.25 z m 2.116667,0.808333 v 1.058334 h 0.808333 c 0.138071,0 0.25,-0.111929 0.25,-0.25 v -0.558334 c 0,-0.138071 -0.111929,-0.25 -0.25,-0.25 z m 0,1.058334 H 14.5375 c -0.138071,0 -0.25,0.111929 -0.25,0.25 v 0.558333 c 0,0.138071 0.111929,0.25 0.25,0.25 h 0.808333 z m 0,1.058333 v 1.058333 1.058334 h 0.808333 c 0.138071,0 0.25,-0.111929 0.25,-0.25 v -0.808334 -0.808333 c 0,-0.138071 -0.111929,-0.25 -0.25,-0.25 z m 0,2.116667 H 14.2875 13.229166 v 0.808333 c 0,0.138071 0.111929,0.25 0.25,0.25 h 0.808334 0.808333 c 0.138071,0 0.25,-0.111929 0.25,-0.25 z m -2.116667,0 v -0.808334 c 0,-0.138071 -0.111929,-0.25 -0.25,-0.25 h -0.558333 c -0.138071,0 -0.25,0.111929 -0.25,0.25 v 0.558334 c 0,0.138071 0.111929,0.25 0.25,0.25 z m 0,-4.233334 h -0.808333 c -0.138071,0 -0.25,0.111929 -0.25,0.25 v 0.558334 c 0,0.138071 0.111929,0.25 0.25,0.25 h 0.558333 c 0.138071,0 0.25,-0.111929 0.25,-0.25 z" />
    <path
       id="rect1343"
       style="fill:#f9dba9;fill-opacity:1;stroke:none;stroke-width:0.264583;stroke-opacity:1"
       d="m 13.229166,10.56875 v 0.808333 H 14.2875 15.345833 V 10.56875 a 0.25,0.25 0 0 0 -0.25,-0.25 H 14.2875 13.479166 a 0.25,0.25 0 0 0 -0.25,0.25 z m 2.116667,0.808333 v 1.058334 h 0.808333 c 0.138071,0 0.25,-0.111929 0.25,-0.25 v -0.558334 c 0,-0.138071 -0.111929,-0.25 -0.25,-0.25 z m 0,1.058334 H 14.5375 c -0.138071,0 -0.25,0.111929 -0.25,0.25 v 0.558333 c 0,0.138071 0.111929,0.25 0.25,0.25 h 0.808333 z m 0,1.058333 v 1.058333 1.058334 h 0.808333 c 0.138071,0 0.25,-0.111929 0.25,-0.25 V 14.552083 13.74375 c 0,-0.138071 -0.111929,-0.25 -0.25,-0.25 z m 0,2.116667 H 14.2875 13.229166 v 0.808333 c 0,0.138071 0.111929,0.25 0.25,0.25 h 0.808334 0.808333 c 0.138071,0 0.25,-0.111929 0.25,-0.25 z m -2.116667,0 v -0.808334 c 0,-0.138071 -0.111929,-0.25 -0.25,-0.25 h -0.558333 c -0.138071,0 -0.25,0.111929 -0.25,0.25 v 0.558334 c 0,0.138071 0.111929,0.25 0.25,0.25 z m 0,-4.233334 h -0.808333 c -0.138071,0 -0.25,0.111929 -0.25,0.25 v 0.558334 c 0,0.138071 0.111929,0.25 0.25,0.25 h 0.558333 c 0.138071,0 0.25,-0.111929 0.25,-0.25 z" />
  </g>
  <g
     inkscape:groupmode="layer"
     id="layer3"
     inkscape:label="mono"
     style="display:none"
     sodipodi:insensitive="true">
    <path
       id="rect1"
       style="fill:#1a1a1a;stroke-width:0.264583"
       d="M 0,0 V 0.26458333 H 0.26458333 V 0 Z M 0.79374999,0 V 0.26458333 H 1.3229166 V 0 Z M 1.8520833,0 V 0.26458333 H 2.38125 V 0 Z M 2.9104166,0 V 0.26458333 H 3.4395833 V 0 Z M 3.9687499,0 V 0.26458333 H 4.4979166 V 0 Z M 5.0270832,0 V 0.26458333 H 5.5562499 V 0 Z M 6.0854166,0 V 0.26458333 H 6.6145832 V 0 Z M 7.1437499,0 V 0.26458333 H 7.6729165 V 0 Z M 8.2020832,0 V 0.26458333 H 8.7312498 V 0 Z M 9.2604165,0 V 0.26458333 H 9.7895832 V 0 Z M 10.31875,0 v 0.26458333 h 0.529166 V 0 Z m 1.058333,0 V 0.26458333 H 11.90625 V 0 Z m 1.058333,0 v 0.26458333 h 0.529167 V 0 Z m 1.058334,0 v 0.26458333 h 0.529166 V 0 Z m 1.058333,0 V 0.26458333 H 15.08125 V 0 Z m 1.058333,0 v 0.26458333 h 0.529167 V 0 Z m 1.058334,0 v 0.26458333 h 0.529166 V 0 Z m 1.058333,0 V 0.26458333 H 18.25625 V 0 Z m 1.058333,0 v 0.26458333 h 0.529167 V 0 Z m 1.058334,0 v 0.26458333 h 0.529166 V 0 Z m 1.058333,0 V 0.26458333 H 21.43125 V 0 Z m 1.058333,0 v 0.26458333 h 0.529167 V 0 Z m 1.058334,0 v 0.26458333 h 0.529166 V 0 Z m 1.058333,0 V 0.26458333 H 24.60625 V 0 Z m 1.058333,0 v 0.26458333 h 0.529167 V 0 Z m 1.058334,0 v 0.26458333 h 0.529166 V 0 Z m 1.058333,0 V 0.26458333 H 27.78125 V 0 Z m 1.058333,0 v 0.26458333 h 0.264583 V 0 Z M 0,0.79374999 V 1.3229166 H 0.26458333 V 0.79374999 Z m 0.79374999,0 V 1.3229166 H 1.3229166 V 0.79374999 Z m 1.05833331,0 V 1.3229166 H 2.38125 V 0.79374999 Z m 1.0583333,0 V 1.3229166 H 3.4395833 V 0.79374999 Z m 1.0583333,0 V 1.3229166 H 4.4979166 V 0.79374999 Z m 1.0583333,0 V 1.3229166 H 5.5562499 V 0.79374999 Z m 1.0583334,0 V 1.3229166 H 6.6145832 V 0.79374999 Z m 1.0583333,0 V 1.3229166 H 7.6729165 V 0.79374999 Z m 1.0583333,0 V 1.3229166 H 8.7312498 V 0.79374999 Z m 1.0583333,0 V 1.3229166 H 9.7895832 V 0.79374999 Z m 1.0583335,0 V 1.3229166 h 0.529166 V 0.79374999 Z m 1.058333,0 V 1.3229166 H 11.90625 V 0.79374999 Z m 1.058333,0 V 1.3229166 h 0.529167 V 0.79374999 Z m 1.058334,0 V 1.3229166 h 0.529166 V 0.79374999 Z m 1.058333,0 V 1.3229166 H 15.08125 V 0.79374999 Z m 1.058333,0 V 1.3229166 h 0.529167 V 0.79374999 Z m 1.058334,0 V 1.3229166 h 0.529166 V 0.79374999 Z m 1.058333,0 V 1.3229166 H 18.25625 V 0.79374999 Z m 1.058333,0 V 1.3229166 h 0.529167 V 0.79374999 Z m 1.058334,0 V 1.3229166 h 0.529166 V 0.79374999 Z m 1.058333,0 V 1.3229166 H 21.43125 V 0.79374999 Z m 1.058333,0 V 1.3229166 h 0.529167 V 0.79374999 Z m 1.058334,0 V 1.3229166 h 0.529166 V 0.79374999 Z m 1.058333,0 V 1.3229166 H 24.60625 V 0.79374999 Z m 1.058333,0 V 1.3229166 h 0.529167 V 0.79374999 Z m 1.058334,0 V 1.3229166 h 0.529166 V 0.79374999 Z m 1.058333,0 V 1.3229166 H 27.78125 V 0.79374999 Z m 1.058333,0 V 1.3229166 h 0.264583 V 0.79374999 Z M 0,1.8520833 V 2.38125 H 0.26458333 V 1.8520833 Z m 0.79374999,0 V 2.38125 H 1.3229166 V 1.8520833 Z m 1.05833331,0 V 2.38125 H 2.38125 V 1.8520833 Z m 1.0583333,0 V 2.38125 H 3.4395833 V 1.8520833 Z m 1.0583333,0 V 2.38125 H 4.4979166 V 1.8520833 Z m 1.0583333,0 V 2.38125 H 5.5562499 V 1.8520833 Z m 1.0583334,0 V 2.38125 H 6.6145832 V 1.8520833 Z m 1.0583333,0 V 2.38125 H 7.6729165 V 1.8520833 Z m 1.0583333,0 V 2.38125 H 8.7312498 V 1.8520833 Z m 1.0583333,0 V 2.38125 H 9.7895832 V 1.8520833 Z m 1.0583335,0 V 2.38125 h 0.529166 V 1.8520833 Z m 1.058333,0 V 2.38125 H 11.90625 V 1.8520833 Z m 1.058333,0 V 2.38125 h 0.529167 V 1.8520833 Z m 1.058334,0 V 2.38125 h 0.529166 V 1.8520833 Z m 1.058333,0 V 2.38125 H 15.08125 V 1.8520833 Z m 1.058333,0 V 2.38125 h 0.529167 V 1.8520833 Z m 1.058334,0 V 2.38125 h 0.529166 V 1.8520833 Z m 1.058333,0 V 2.38125 H 18.25625 V 1.8520833 Z m 1.058333,0 V 2.38125 h 0.529167 V 1.8520833 Z m 1.058334,0 V 2.38125 h 0.529166 V 1.8520833 Z m 1.058333,0 V 2.38125 H 21.43125 V 1.8520833 Z m 1.058333,0 V 2.38125 h 0.529167 V 1.8520833 Z m 1.058334,0 V 2.38125 h 0.529166 V 1.8520833 Z m 1.058333,0 V 2.38125 H 24.60625 V 1.8520833 Z m 1.058333,0 V 2.38125 h 0.529167 V 1.8520833 Z m 1.058334,0 V 2.38125 h 0.529166 V 1.8520833 Z m 1.058333,0 V 2.38125 H 27.78125 V 1.8520833 Z m 1.058333,0 V 2.38125 h 0.264583 V 1.8520833 Z M 0,2.9104166 V 3.4395833 H 0.26458333 V 2.9104166 Z m 0.79374999,0 V 3.4395833 H 1.3229166 V 2.9104166 Z m 1.05833331,0 V 3.4395833 H 2.38125 V 2.9104166 Z m 1.0583333,0 V 3.4395833 H 3.4395833 V 2.9104166 Z m 1.0583333,0 V 3.4395833 H 4.4979166 V 2.9104166 Z m 1.0583333,0 V 3.4395833 H 5.5562499 V 2.9104166 Z m 1.0583334,0 V 3.4395833 H 6.6145832 V 2.9104166 Z m 1.0583333,0 V 3.4395833 H 7.6729165 V 2.9104166 Z m 1.0583333,0 V 3.4395833 H 8.7312498 V 2.9104166 Z m 1.0583333,0 V 3.4395833 H 9.7895832 V 2.9104166 Z m 1.0583335,0 v 0.5291667 h 0.529166 V 2.9104166 Z m 1.058333,0 V 3.4395833 H 11.90625 V 2.9104166 Z m 1.058333,0 v 0.5291667 h 0.529167 V 2.9104166 Z m 1.058334,0 v 0.5291667 h 0.529166 V 2.9104166 Z m 1.058333,0 V 3.4395833 H 15.08125 V 2.9104166 Z m 1.058333,0 v 0.5291667 h 0.529167 V 2.9104166 Z m 1.058334,0 v 0.5291667 h 0.529166 V 2.9104166 Z m 1.058333,0 V 3.4395833 H 18.25625 V 2.9104166 Z m 1.058333,0 v 0.5291667 h 0.529167 V 2.9104166 Z m 1.058334,0 v 0.5291667 h 0.529166 V 2.9104166 Z m 1.058333,0 V 3.4395833 H 21.43125 V 2.9104166 Z m 1.058333,0 v 0.5291667 h 0.529167 V 2.9104166 Z m 1.058334,0 v 0.5291667 h 0.529166 V 2.9104166 Z m 1.058333,0 V 3.4395833 H 24.60625 V 2.9104166 Z m 1.058333,0 v 0.5291667 h 0.529167 V 2.9104166 Z m 1.058334,0 v 0.5291667 h 0.529166 V 2.9104166 Z m 1.058333,0 V 3.4395833 H 27.78125 V 2.9104166 Z m 1.058333,0 v 0.5291667 h 0.264583 V 2.9104166 Z M 0,3.9687499 V 4.4979166 H 0.26458333 V 3.9687499 Z m 0.79374999,0 V 4.4979166 H 1.3229166 V 3.9687499 Z m 1.05833331,0 V 4.4979166 H 2.38125 V 3.9687499 Z m 1.0583333,0 V 4.4979166 H 3.4395833 V 3.9687499 Z m 1.0583333,0 V 4.4979166 H 4.4979166 V 3.9687499 Z m 1.0583333,0 V 4.4979166 H 5.5562499 V 3.9687499 Z m 1.0583334,0 V 4.4979166 H 6.6145832 V 3.9687499 Z m 1.0583333,0 V 4.4979166 H 7.6729165 V 3.9687499 Z m 1.0583333,0 V 4.4979166 H 8.7312498 V 3.9687499 Z m 1.0583333,0 V 4.4979166 H 9.7895832 V 3.9687499 Z m 1.0583335,0 v 0.5291667 h 0.529166 V 3.9687499 Z m 1.058333,0 V 4.4979166 H 11.90625 V 3.9687499 Z m 1.058333,0 v 0.5291667 h 0.529167 V 3.9687499 Z m 1.058334,0 v 0.5291667 h 0.529166 V 3.9687499 Z m 1.058333,0 V 4.4979166 H 15.08125 V 3.9687499 Z m 1.058333,0 v 0.5291667 h 0.529167 V 3.9687499 Z m 1.058334,0 v 0.5291667 h 0.529166 V 3.9687499 Z m 1.058333,0 V 4.4979166 H 18.25625 V 3.9687499 Z m 1.058333,0 v 0.5291667 h 0.529167 V 3.9687499 Z m 1.058334,0 v 0.5291667 h 0.529166 V 3.9687499 Z m 1.058333,0 V 4.4979166 H 21.43125 V 3.9687499 Z m 1.058333,0 v 0.5291667 h 0.529167 V 3.9687499 Z m 1.058334,0 v 0.5291667 h 0.529166 V 3.9687499 Z m 1.058333,0 V 4.4979166 H 24.60625 V 3.9687499 Z m 1.058333,0 v 0.5291667 h 0.529167 V 3.9687499 Z m 1.058334,0 v 0.5291667 h 0.529166 V 3.9687499 Z m 1.058333,0 V 4.4979166 H 27.78125 V 3.9687499 Z m 1.058333,0 v 0.5291667 h 0.264583 V 3.9687499 Z M 0,5.0270832 V 5.5562499 H 0.26458333 V 5.0270832 Z m 0.79374999,0 V 5.5562499 H 1.3229166 V 5.0270832 Z m 1.05833331,0 V 5.5562499 H 2.38125 V 5.0270832 Z m 1.0583333,0 V 5.5562499 H 3.4395833 V 5.0270832 Z m 1.0583333,0 V 5.5562499 H 4.4979166 V 5.0270832 Z m 1.0583333,0 V 5.5562499 H 5.5562499 V 5.0270832 Z m 1.0583334,0 V 5.5562499 H 6.6145832 V 5.0270832 Z m 1.0583333,0 V 5.5562499 H 7.6729165 V 5.0270832 Z m 1.0583333,0 V 5.5562499 H 8.7312498 V 5.0270832 Z m 1.0583333,0 V 5.5562499 H 9.7895832 V 5.0270832 Z m 1.0583335,0 v 0.5291667 h 0.529166 V 5.0270832 Z m 1.058333,0 V 5.5562499 H 11.90625 V 5.0270832 Z m 1.058333,0 v 0.5291667 h 0.529167 V 5.0270832 Z m 1.058334,0 v 0.5291667 h 0.529166 V 5.0270832 Z m 1.058333,0 V 5.5562499 H 15.08125 V 5.0270832 Z m 1.058333,0 v 0.5291667 h 0.529167 V 5.0270832 Z m 1.058334,0 v 0.5291667 h 0.529166 V 5.0270832 Z m 1.058333,0 V 5.5562499 H 18.25625 V 5.0270832 Z m 1.058333,0 v 0.5291667 h 0.529167 V 5.0270832 Z m 1.058334,0 v 0.5291667 h 0.529166 V 5.0270832 Z m 1.058333,0 V 5.5562499 H 21.43125 V 5.0270832 Z m 1.058333,0 v 0.5291667 h 0.529167 V 5.0270832 Z m 1.058334,0 v 0.5291667 h 0.529166 V 5.0270832 Z m 1.058333,0 V 5.5562499 H 24.60625 V 5.0270832 Z m 1.058333,0 v 0.5291667 h 0.529167 V 5.0270832 Z m 1.058334,0 v 0.5291667 h 0.529166 V 5.0270832 Z m 1.058333,0 V 5.5562499 H 27.78125 V 5.0270832 Z m 1.058333,0 v 0.5291667 h 0.264583 V 5.0270832 Z M 0,6.0854166 V 6.6145832 H 0.26458333 V 6.0854166 Z m 0.79374999,0 V 6.6145832 H 1.3229166 V 6.0854166 Z m 1.05833331,0 V 6.6145832 H 2.38125 V 6.0854166 Z m 1.0583333,0 V 6.6145832 H 3.4395833 V 6.0854166 Z m 1.0583333,0 V 6.6145832 H 4.4979166 V 6.0854166 Z m 1.0583333,0 V 6.6145832 H 5.5562499 V 6.0854166 Z m 1.0583334,0 V 6.6145832 H 6.6145832 V 6.0854166 Z m 1.0583333,0 V 6.6145832 H 7.6729165 V 6.0854166 Z m 1.0583333,0 V 6.6145832 H 8.7312498 V 6.0854166 Z m 1.0583333,0 V 6.6145832 H 9.7895832 V 6.0854166 Z m 1.0583335,0 v 0.5291666 h 0.529166 V 6.0854166 Z m 1.058333,0 V 6.6145832 H 11.90625 V 6.0854166 Z m 1.058333,0 v 0.5291666 h 0.529167 V 6.0854166 Z m 1.058334,0 v 0.5291666 h 0.529166 V 6.0854166 Z m 1.058333,0 V 6.6145832 H 15.08125 V 6.0854166 Z m 1.058333,0 v 0.5291666 h 0.529167 V 6.0854166 Z m 1.058334,0 v 0.5291666 h 0.529166 V 6.0854166 Z m 1.058333,0 V 6.6145832 H 18.25625 V 6.0854166 Z m 1.058333,0 v 0.5291666 h 0.529167 V 6.0854166 Z m 1.058334,0 v 0.5291666 h 0.529166 V 6.0854166 Z m 1.058333,0 V 6.6145832 H 21.43125 V 6.0854166 Z m 1.058333,0 v 0.5291666 h 0.529167 V 6.0854166 Z m 1.058334,0 v 0.5291666 h 0.529166 V 6.0854166 Z m 1.058333,0 V 6.6145832 H 24.60625 V 6.0854166 Z m 1.058333,0 v 0.5291666 h 0.529167 V 6.0854166 Z m 1.058334,0 v 0.5291666 h 0.529166 V 6.0854166 Z m 1.058333,0 V 6.6145832 H 27.78125 V 6.0854166 Z m 1.058333,0 v 0.5291666 h 0.264583 V 6.0854166 Z M 0,7.1437499 V 7.6729165 H 0.26458333 V 7.1437499 Z m 0.79374999,0 V 7.6729165 H 1.3229166 V 7.1437499 Z m 1.05833331,0 V 7.6729165 H 2.38125 V 7.1437499 Z m 1.0583333,0 V 7.6729165 H 3.4395833 V 7.1437499 Z m 1.0583333,0 V 7.6729165 H 4.4979166 V 7.1437499 Z m 1.0583333,0 V 7.6729165 H 5.5562499 V 7.1437499 Z m 1.0583334,0 V 7.6729165 H 6.6145832 V 7.1437499 Z m 1.0583333,0 V 7.6729165 H 7.6729165 V 7.1437499 Z m 1.0583333,0 V 7.6729165 H 8.7312498 V 7.1437499 Z m 1.0583333,0 V 7.6729165 H 9.7895832 V 7.1437499 Z m 1.0583335,0 v 0.5291666 h 0.529166 V 7.1437499 Z m 1.058333,0 V 7.6729165 H 11.90625 V 7.1437499 Z m 1.058333,0 v 0.5291666 h 0.529167 V 7.1437499 Z m 1.058334,0 v 0.5291666 h 0.529166 V 7.1437499 Z m 1.058333,0 V 7.6729165 H 15.08125 V 7.1437499 Z m 1.058333,0 v 0.5291666 h 0.529167 V 7.1437499 Z m 1.058334,0 v 0.5291666 h 0.529166 V 7.1437499 Z m 1.058333,0 V 7.6729165 H 18.25625 V 7.1437499 Z m 1.058333,0 v 0.5291666 h 0.529167 V 7.1437499 Z m 1.058334,0 v 0.5291666 h 0.529166 V 7.1437499 Z m 1.058333,0 V 7.6729165 H 21.43125 V 7.1437499 Z m 1.058333,0 v 0.5291666 h 0.529167 V 7.1437499 Z m 1.058334,0 v 0.5291666 h 0.529166 V 7.1437499 Z m 1.058333,0 V 7.6729165 H 24.60625 V 7.1437499 Z m 1.058333,0 v 0.5291666 h 0.529167 V 7.1437499 Z m 1.058334,0 v 0.5291666 h 0.529166 V 7.1437499 Z m 1.058333,0 V 7.6729165 H 27.78125 V 7.1437499 Z m 1.058333,0 v 0.5291666 h 0.264583 V 7.1437499 Z M 11.1125,7.9374999 v 1.0583333 h 6.35 V 7.9374999 Z m 6.35,1.0583333 v 9.5249998 h 1.058333 V 8.9958332 Z m 0,9.5249998 h -6.35 v 1.058333 h 6.35 z m -6.35,0 V 8.9958332 H 10.054166 V 18.520833 Z M 0,8.2020832 V 8.7312498 H 0.26458333 V 8.2020832 Z m 0.79374999,0 V 8.7312498 H 1.3229166 V 8.2020832 Z m 1.05833331,0 V 8.7312498 H 2.38125 V 8.2020832 Z m 1.0583333,0 V 8.7312498 H 3.4395833 V 8.2020832 Z m 1.0583333,0 V 8.7312498 H 4.4979166 V 8.2020832 Z m 1.0583333,0 V 8.7312498 H 5.5562499 V 8.2020832 Z m 1.0583334,0 V 8.7312498 H 6.6145832 V 8.2020832 Z m 1.0583333,0 V 8.7312498 H 7.6729165 V 8.2020832 Z m 1.0583333,0 V 8.7312498 H 8.7312498 V 8.2020832 Z m 1.0583333,0 V 8.7312498 H 9.7895832 V 8.2020832 Z m 1.0583335,0 v 0.5291666 h 0.529166 V 8.2020832 Z m 7.408333,0 V 8.7312498 H 18.25625 V 8.2020832 Z m 1.058333,0 v 0.5291666 h 0.529167 V 8.2020832 Z m 1.058334,0 v 0.5291666 h 0.529166 V 8.2020832 Z m 1.058333,0 V 8.7312498 H 21.43125 V 8.2020832 Z m 1.058333,0 v 0.5291666 h 0.529167 V 8.2020832 Z m 1.058334,0 v 0.5291666 h 0.529166 V 8.2020832 Z m 1.058333,0 V 8.7312498 H 24.60625 V 8.2020832 Z m 1.058333,0 v 0.5291666 h 0.529167 V 8.2020832 Z m 1.058334,0 v 0.5291666 h 0.529166 V 8.2020832 Z m 1.058333,0 V 8.7312498 H 27.78125 V 8.2020832 Z m 1.058333,0 v 0.5291666 h 0.264583 V 8.2020832 Z M 0,9.2604165 V 9.7895832 H 0.26458333 V 9.2604165 Z m 0.79374999,0 V 9.7895832 H 1.3229166 V 9.2604165 Z m 1.05833331,0 V 9.7895832 H 2.38125 V 9.2604165 Z m 1.0583333,0 V 9.7895832 H 3.4395833 V 9.2604165 Z m 1.0583333,0 V 9.7895832 H 4.4979166 V 9.2604165 Z m 1.0583333,0 V 9.7895832 H 5.5562499 V 9.2604165 Z m 1.0583334,0 V 9.7895832 H 6.6145832 V 9.2604165 Z m 1.0583333,0 V 9.7895832 H 7.6729165 V 9.2604165 Z m 1.0583333,0 V 9.7895832 H 8.7312498 V 9.2604165 Z m 1.0583333,0 V 9.7895832 H 9.7895832 V 9.2604165 Z m 9.5249995,0 v 0.5291667 h 0.529167 V 9.2604165 Z m 1.058334,0 v 0.5291667 h 0.529166 V 9.2604165 Z m 1.058333,0 V 9.7895832 H 21.43125 V 9.2604165 Z m 1.058333,0 v 0.5291667 h 0.529167 V 9.2604165 Z m 1.058334,0 v 0.5291667 h 0.529166 V 9.2604165 Z m 1.058333,0 V 9.7895832 H 24.60625 V 9.2604165 Z m 1.058333,0 v 0.5291667 h 0.529167 V 9.2604165 Z m 1.058334,0 v 0.5291667 h 0.529166 V 9.2604165 Z m 1.058333,0 V 9.7895832 H 27.78125 V 9.2604165 Z m 1.058333,0 v 0.5291667 h 0.264583 V 9.2604165 Z M 0,10.31875 v 0.529166 H 0.26458333 V 10.31875 Z m 0.79374999,0 v 0.529166 H 1.3229166 V 10.31875 Z m 1.05833331,0 v 0.529166 H 2.38125 V 10.31875 Z m 1.0583333,0 v 0.529166 H 3.4395833 V 10.31875 Z m 1.0583333,0 v 0.529166 H 4.4979166 V 10.31875 Z m 1.0583333,0 v 0.529166 H 5.5562499 V 10.31875 Z m 1.0583334,0 v 0.529166 H 6.6145832 V 10.31875 Z m 1.0583333,0 v 0.529166 H 7.6729165 V 10.31875 Z m 1.0583333,0 v 0.529166 H 8.7312498 V 10.31875 Z m 1.0583333,0 v 0.529166 H 9.7895832 V 10.31875 Z m 9.5249995,0 v 0.529166 h 0.529167 V 10.31875 Z m 1.058334,0 v 0.529166 h 0.529166 V 10.31875 Z m 1.058333,0 v 0.529166 H 21.43125 V 10.31875 Z m 1.058333,0 v 0.529166 h 0.529167 V 10.31875 Z m 1.058334,0 v 0.529166 h 0.529166 V 10.31875 Z m 1.058333,0 v 0.529166 H 24.60625 V 10.31875 Z m 1.058333,0 v 0.529166 h 0.529167 V 10.31875 Z m 1.058334,0 v 0.529166 h 0.529166 V 10.31875 Z m 1.058333,0 v 0.529166 H 27.78125 V 10.31875 Z m 1.058333,0 v 0.529166 h 0.264583 V 10.31875 Z m -15.08125,0.264583 v 1.058333 h 2.116667 v -1.058333 z m 2.116667,1.058333 V 12.7 h 1.058333 v -1.058334 z m 0,1.058334 H 14.2875 v 1.058333 h 1.058333 z m 0,1.058333 V 15.875 h 1.058333 v -2.116667 z m 0,2.116667 h -2.116667 v 1.058333 h 2.116667 z m -2.116667,0 V 14.816666 H 12.170833 V 15.875 Z m 0,-4.233334 H 12.170833 V 12.7 h 1.058333 z M 0,11.377083 v 0.529167 h 0.26458333 v -0.529167 z m 0.79374999,0 V 11.90625 H 1.3229166 v -0.529167 z m 1.05833331,0 V 11.90625 H 2.38125 v -0.529167 z m 1.0583333,0 v 0.529167 h 0.5291667 v -0.529167 z m 1.0583333,0 v 0.529167 h 0.5291667 v -0.529167 z m 1.0583333,0 v 0.529167 h 0.5291667 v -0.529167 z m 1.0583334,0 v 0.529167 h 0.5291666 v -0.529167 z m 1.0583333,0 v 0.529167 h 0.5291666 v -0.529167 z m 1.0583333,0 v 0.529167 h 0.5291666 v -0.529167 z m 1.0583333,0 v 0.529167 h 0.5291667 v -0.529167 z m 9.5249995,0 v 0.529167 h 0.529167 v -0.529167 z m 1.058334,0 v 0.529167 h 0.529166 v -0.529167 z m 1.058333,0 v 0.529167 h 0.529167 v -0.529167 z m 1.058333,0 v 0.529167 h 0.529167 v -0.529167 z m 1.058334,0 v 0.529167 h 0.529166 v -0.529167 z m 1.058333,0 v 0.529167 h 0.529167 v -0.529167 z m 1.058333,0 v 0.529167 h 0.529167 v -0.529167 z m 1.058334,0 v 0.529167 h 0.529166 v -0.529167 z m 1.058333,0 v 0.529167 h 0.529167 v -0.529167 z m 1.058333,0 v 0.529167 h 0.264583 V 11.377083 Z M 0,12.435416 v 0.529167 h 0.26458333 v -0.529167 z m 0.79374999,0 v 0.529167 H 1.3229166 v -0.529167 z m 1.05833331,0 v 0.529167 H 2.38125 v -0.529167 z m 1.0583333,0 v 0.529167 h 0.5291667 v -0.529167 z m 1.0583333,0 v 0.529167 h 0.5291667 v -0.529167 z m 1.0583333,0 v 0.529167 h 0.5291667 v -0.529167 z m 1.0583334,0 v 0.529167 h 0.5291666 v -0.529167 z m 1.0583333,0 v 0.529167 h 0.5291666 v -0.529167 z m 1.0583333,0 v 0.529167 h 0.5291666 v -0.529167 z m 1.0583333,0 v 0.529167 h 0.5291667 v -0.529167 z m 9.5249995,0 v 0.529167 h 0.529167 v -0.529167 z m 1.058334,0 v 0.529167 h 0.529166 v -0.529167 z m 1.058333,0 v 0.529167 h 0.529167 v -0.529167 z m 1.058333,0 v 0.529167 h 0.529167 v -0.529167 z m 1.058334,0 v 0.529167 h 0.529166 v -0.529167 z m 1.058333,0 v 0.529167 h 0.529167 v -0.529167 z m 1.058333,0 v 0.529167 h 0.529167 v -0.529167 z m 1.058334,0 v 0.529167 h 0.529166 v -0.529167 z m 1.058333,0 v 0.529167 h 0.529167 v -0.529167 z m 1.058333,0 v 0.529167 h 0.264583 V 12.435416 Z M 0,13.49375 v 0.529166 H 0.26458333 V 13.49375 Z m 0.79374999,0 v 0.529166 H 1.3229166 V 13.49375 Z m 1.05833331,0 v 0.529166 H 2.38125 V 13.49375 Z m 1.0583333,0 v 0.529166 H 3.4395833 V 13.49375 Z m 1.0583333,0 v 0.529166 H 4.4979166 V 13.49375 Z m 1.0583333,0 v 0.529166 H 5.5562499 V 13.49375 Z m 1.0583334,0 v 0.529166 H 6.6145832 V 13.49375 Z m 1.0583333,0 v 0.529166 H 7.6729165 V 13.49375 Z m 1.0583333,0 v 0.529166 H 8.7312498 V 13.49375 Z m 1.0583333,0 v 0.529166 H 9.7895832 V 13.49375 Z m 9.5249995,0 v 0.529166 h 0.529167 V 13.49375 Z m 1.058334,0 v 0.529166 h 0.529166 V 13.49375 Z m 1.058333,0 v 0.529166 H 21.43125 V 13.49375 Z m 1.058333,0 v 0.529166 h 0.529167 V 13.49375 Z m 1.058334,0 v 0.529166 h 0.529166 V 13.49375 Z m 1.058333,0 v 0.529166 H 24.60625 V 13.49375 Z m 1.058333,0 v 0.529166 h 0.529167 V 13.49375 Z m 1.058334,0 v 0.529166 h 0.529166 V 13.49375 Z m 1.058333,0 v 0.529166 H 27.78125 V 13.49375 Z m 1.058333,0 v 0.529166 h 0.264583 V 13.49375 Z M 0,14.552083 v 0.529167 h 0.26458333 v -0.529167 z m 0.79374999,0 V 15.08125 H 1.3229166 v -0.529167 z m 1.05833331,0 V 15.08125 H 2.38125 v -0.529167 z m 1.0583333,0 v 0.529167 h 0.5291667 v -0.529167 z m 1.0583333,0 v 0.529167 h 0.5291667 v -0.529167 z m 1.0583333,0 v 0.529167 h 0.5291667 v -0.529167 z m 1.0583334,0 v 0.529167 h 0.5291666 v -0.529167 z m 1.0583333,0 v 0.529167 h 0.5291666 v -0.529167 z m 1.0583333,0 v 0.529167 h 0.5291666 v -0.529167 z m 1.0583333,0 v 0.529167 h 0.5291667 v -0.529167 z m 9.5249995,0 v 0.529167 h 0.529167 v -0.529167 z m 1.058334,0 v 0.529167 h 0.529166 v -0.529167 z m 1.058333,0 v 0.529167 h 0.529167 v -0.529167 z m 1.058333,0 v 0.529167 h 0.529167 v -0.529167 z m 1.058334,0 v 0.529167 h 0.529166 v -0.529167 z m 1.058333,0 v 0.529167 h 0.529167 v -0.529167 z m 1.058333,0 v 0.529167 h 0.529167 v -0.529167 z m 1.058334,0 v 0.529167 h 0.529166 v -0.529167 z m 1.058333,0 v 0.529167 h 0.529167 v -0.529167 z m 1.058333,0 v 0.529167 h 0.264583 V 14.552083 Z M 0,15.610416 v 0.529167 h 0.26458333 v -0.529167 z m 0.79374999,0 v 0.529167 H 1.3229166 v -0.529167 z m 1.05833331,0 v 0.529167 H 2.38125 v -0.529167 z m 1.0583333,0 v 0.529167 h 0.5291667 v -0.529167 z m 1.0583333,0 v 0.529167 h 0.5291667 v -0.529167 z m 1.0583333,0 v 0.529167 h 0.5291667 v -0.529167 z m 1.0583334,0 v 0.529167 h 0.5291666 v -0.529167 z m 1.0583333,0 v 0.529167 h 0.5291666 v -0.529167 z m 1.0583333,0 v 0.529167 h 0.5291666 v -0.529167 z m 1.0583333,0 v 0.529167 h 0.5291667 v -0.529167 z m 9.5249995,0 v 0.529167 h 0.529167 v -0.529167 z m 1.058334,0 v 0.529167 h 0.529166 v -0.529167 z m 1.058333,0 v 0.529167 h 0.529167 v -0.529167 z m 1.058333,0 v 0.529167 h 0.529167 v -0.529167 z m 1.058334,0 v 0.529167 h 0.529166 v -0.529167 z m 1.058333,0 v 0.529167 h 0.529167 v -0.529167 z m 1.058333,0 v 0.529167 h 0.529167 v -0.529167 z m 1.058334,0 v 0.529167 h 0.529166 v -0.529167 z m 1.058333,0 v 0.529167 h 0.529167 v -0.529167 z m 1.058333,0 v 0.529167 h 0.264583 V 15.610416 Z M 0,16.66875 v 0.529166 H 0.26458333 V 16.66875 Z m 0.79374999,0 v 0.529166 H 1.3229166 V 16.66875 Z m 1.05833331,0 v 0.529166 H 2.38125 V 16.66875 Z m 1.0583333,0 v 0.529166 H 3.4395833 V 16.66875 Z m 1.0583333,0 v 0.529166 H 4.4979166 V 16.66875 Z m 1.0583333,0 v 0.529166 H 5.5562499 V 16.66875 Z m 1.0583334,0 v 0.529166 H 6.6145832 V 16.66875 Z m 1.0583333,0 v 0.529166 H 7.6729165 V 16.66875 Z m 1.0583333,0 v 0.529166 H 8.7312498 V 16.66875 Z m 1.0583333,0 v 0.529166 H 9.7895832 V 16.66875 Z m 9.5249995,0 v 0.529166 h 0.529167 V 16.66875 Z m 1.058334,0 v 0.529166 h 0.529166 V 16.66875 Z m 1.058333,0 v 0.529166 H 21.43125 V 16.66875 Z m 1.058333,0 v 0.529166 h 0.529167 V 16.66875 Z m 1.058334,0 v 0.529166 h 0.529166 V 16.66875 Z m 1.058333,0 v 0.529166 H 24.60625 V 16.66875 Z m 1.058333,0 v 0.529166 h 0.529167 V 16.66875 Z m 1.058334,0 v 0.529166 h 0.529166 V 16.66875 Z m 1.058333,0 v 0.529166 H 27.78125 V 16.66875 Z m 1.058333,0 v 0.529166 h 0.264583 V 16.66875 Z M 0,17.727083 v 0.529167 h 0.26458333 v -0.529167 z m 0.79374999,0 V 18.25625 H 1.3229166 v -0.529167 z m 1.05833331,0 V 18.25625 H 2.38125 v -0.529167 z m 1.0583333,0 v 0.529167 h 0.5291667 v -0.529167 z m 1.0583333,0 v 0.529167 h 0.5291667 v -0.529167 z m 1.0583333,0 v 0.529167 h 0.5291667 v -0.529167 z m 1.0583334,0 v 0.529167 h 0.5291666 v -0.529167 z m 1.0583333,0 v 0.529167 h 0.5291666 v -0.529167 z m 1.0583333,0 v 0.529167 h 0.5291666 v -0.529167 z m 1.0583333,0 v 0.529167 h 0.5291667 v -0.529167 z m 9.5249995,0 v 0.529167 h 0.529167 v -0.529167 z m 1.058334,0 v 0.529167 h 0.529166 v -0.529167 z m 1.058333,0 v 0.529167 h 0.529167 v -0.529167 z m 1.058333,0 v 0.529167 h 0.529167 v -0.529167 z m 1.058334,0 v 0.529167 h 0.529166 v -0.529167 z m 1.058333,0 v 0.529167 h 0.529167 v -0.529167 z m 1.058333,0 v 0.529167 h 0.529167 v -0.529167 z m 1.058334,0 v 0.529167 h 0.529166 v -0.529167 z m 1.058333,0 v 0.529167 h 0.529167 v -0.529167 z m 1.058333,0 v 0.529167 h 0.264583 V 17.727083 Z M 0,18.785416 v 0.529167 h 0.26458333 v -0.529167 z m 0.79374999,0 v 0.529167 H 1.3229166 v -0.529167 z m 1.05833331,0 v 0.529167 H 2.38125 v -0.529167 z m 1.0583333,0 v 0.529167 h 0.5291667 v -0.529167 z m 1.0583333,0 v 0.529167 h 0.5291667 v -0.529167 z m 1.0583333,0 v 0.529167 h 0.5291667 v -0.529167 z m 1.0583334,0 v 0.529167 h 0.5291666 v -0.529167 z m 1.0583333,0 v 0.529167 h 0.5291666 v -0.529167 z m 1.0583333,0 v 0.529167 h 0.5291666 v -0.529167 z m 1.0583333,0 v 0.529167 h 0.5291667 v -0.529167 z m 0.7937495,0 v 0.79375 h 0.79375 v -0.79375 z m 7.672917,0 v 0.79375 h 0.79375 v -0.79375 z m 1.058333,0 v 0.529167 h 0.529167 v -0.529167 z m 1.058334,0 v 0.529167 h 0.529166 v -0.529167 z m 1.058333,0 v 0.529167 h 0.529167 v -0.529167 z m 1.058333,0 v 0.529167 h 0.529167 v -0.529167 z m 1.058334,0 v 0.529167 h 0.529166 v -0.529167 z m 1.058333,0 v 0.529167 h 0.529167 v -0.529167 z m 1.058333,0 v 0.529167 h 0.529167 v -0.529167 z m 1.058334,0 v 0.529167 h 0.529166 v -0.529167 z m 1.058333,0 v 0.529167 h 0.529167 v -0.529167 z m 1.058333,0 v 0.529167 h 0.264583 V 18.785416 Z M 0,19.84375 v 0.529166 H 0.26458333 V 19.84375 Z m 0.79374999,0 v 0.529166 H 1.3229166 V 19.84375 Z m 1.05833331,0 v 0.529166 H 2.38125 V 19.84375 Z m 1.0583333,0 v 0.529166 H 3.4395833 V 19.84375 Z m 1.0583333,0 v 0.529166 H 4.4979166 V 19.84375 Z m 1.0583333,0 v 0.529166 H 5.5562499 V 19.84375 Z m 1.0583334,0 v 0.529166 H 6.6145832 V 19.84375 Z m 1.0583333,0 v 0.529166 H 7.6729165 V 19.84375 Z m 1.0583333,0 v 0.529166 H 8.7312498 V 19.84375 Z m 1.0583333,0 v 0.529166 H 9.7895832 V 19.84375 Z m 1.0583335,0 v 0.529166 h 0.529166 V 19.84375 Z m 0.79375,0 v 0.79375 h 6.35 v -0.79375 z m 6.614583,0 v 0.529166 H 18.25625 V 19.84375 Z m 1.058333,0 v 0.529166 h 0.529167 V 19.84375 Z m 1.058334,0 v 0.529166 h 0.529166 V 19.84375 Z m 1.058333,0 v 0.529166 H 21.43125 V 19.84375 Z m 1.058333,0 v 0.529166 h 0.529167 V 19.84375 Z m 1.058334,0 v 0.529166 h 0.529166 V 19.84375 Z m 1.058333,0 v 0.529166 H 24.60625 V 19.84375 Z m 1.058333,0 v 0.529166 h 0.529167 V 19.84375 Z m 1.058334,0 v 0.529166 h 0.529166 V 19.84375 Z m 1.058333,0 v 0.529166 H 27.78125 V 19.84375 Z m 1.058333,0 v 0.529166 h 0.264583 V 19.84375 Z M 0,20.902083 v 0.529167 h 0.26458333 v -0.529167 z m 0.79374999,0 V 21.43125 H 1.3229166 v -0.529167 z m 1.05833331,0 V 21.43125 H 2.38125 v -0.529167 z m 1.0583333,0 v 0.529167 h 0.5291667 v -0.529167 z m 1.0583333,0 v 0.529167 h 0.5291667 v -0.529167 z m 1.0583333,0 v 0.529167 h 0.5291667 v -0.529167 z m 1.0583334,0 v 0.529167 h 0.5291666 v -0.529167 z m 1.0583333,0 v 0.529167 h 0.5291666 v -0.529167 z m 1.0583333,0 v 0.529167 h 0.5291666 v -0.529167 z m 1.0583333,0 v 0.529167 h 0.5291667 v -0.529167 z m 1.0583335,0 v 0.529167 h 0.529166 v -0.529167 z m 1.058333,0 v 0.529167 h 0.529167 v -0.529167 z m 1.058333,0 v 0.529167 h 0.529167 v -0.529167 z m 1.058334,0 v 0.529167 h 0.529166 v -0.529167 z m 1.058333,0 v 0.529167 h 0.529167 v -0.529167 z m 1.058333,0 v 0.529167 h 0.529167 v -0.529167 z m 1.058334,0 v 0.529167 h 0.529166 v -0.529167 z m 1.058333,0 v 0.529167 h 0.529167 v -0.529167 z m 1.058333,0 v 0.529167 h 0.529167 v -0.529167 z m 1.058334,0 v 0.529167 h 0.529166 v -0.529167 z m 1.058333,0 v 0.529167 h 0.529167 v -0.529167 z m 1.058333,0 v 0.529167 h 0.529167 v -0.529167 z m 1.058334,0 v 0.529167 h 0.529166 v -0.529167 z m 1.058333,0 v 0.529167 h 0.529167 v -0.529167 z m 1.058333,0 v 0.529167 h 0.529167 v -0.529167 z m 1.058334,0 v 0.529167 h 0.529166 v -0.529167 z m 1.058333,0 v 0.529167 h 0.529167 v -0.529167 z m 1.058333,0 v 0.529167 h 0.264583 V 20.902083 Z M 0,21.960416 v 0.529167 h 0.26458333 v -0.529167 z m 0.79374999,0 v 0.529167 H 1.3229166 v -0.529167 z m 1.05833331,0 v 0.529167 H 2.38125 v -0.529167 z m 1.0583333,0 v 0.529167 h 0.5291667 v -0.529167 z m 1.0583333,0 v 0.529167 h 0.5291667 v -0.529167 z m 1.0583333,0 v 0.529167 h 0.5291667 v -0.529167 z m 1.0583334,0 v 0.529167 h 0.5291666 v -0.529167 z m 1.0583333,0 v 0.529167 h 0.5291666 v -0.529167 z m 1.0583333,0 v 0.529167 h 0.5291666 v -0.529167 z m 1.0583333,0 v 0.529167 h 0.5291667 v -0.529167 z m 1.0583335,0 v 0.529167 h 0.529166 v -0.529167 z m 1.058333,0 v 0.529167 h 0.529167 v -0.529167 z m 1.058333,0 v 0.529167 h 0.529167 v -0.529167 z m 1.058334,0 v 0.529167 h 0.529166 v -0.529167 z m 1.058333,0 v 0.529167 h 0.529167 v -0.529167 z m 1.058333,0 v 0.529167 h 0.529167 v -0.529167 z m 1.058334,0 v 0.529167 h 0.529166 v -0.529167 z m 1.058333,0 v 0.529167 h 0.529167 v -0.529167 z m 1.058333,0 v 0.529167 h 0.529167 v -0.529167 z m 1.058334,0 v 0.529167 h 0.529166 v -0.529167 z m 1.058333,0 v 0.529167 h 0.529167 v -0.529167 z m 1.058333,0 v 0.529167 h 0.529167 v -0.529167 z m 1.058334,0 v 0.529167 h 0.529166 v -0.529167 z m 1.058333,0 v 0.529167 h 0.529167 v -0.529167 z m 1.058333,0 v 0.529167 h 0.529167 v -0.529167 z m 1.058334,0 v 0.529167 h 0.529166 v -0.529167 z m 1.058333,0 v 0.529167 h 0.529167 v -0.529167 z m 1.058333,0 v 0.529167 h 0.264583 V 21.960416 Z M 0,23.01875 v 0.529166 H 0.26458333 V 23.01875 Z m 0.79374999,0 v 0.529166 H 1.3229166 V 23.01875 Z m 1.05833331,0 v 0.529166 H 2.38125 V 23.01875 Z m 1.0583333,0 v 0.529166 H 3.4395833 V 23.01875 Z m 1.0583333,0 v 0.529166 H 4.4979166 V 23.01875 Z m 1.0583333,0 v 0.529166 H 5.5562499 V 23.01875 Z m 1.0583334,0 v 0.529166 H 6.6145832 V 23.01875 Z m 1.0583333,0 v 0.529166 H 7.6729165 V 23.01875 Z m 1.0583333,0 v 0.529166 H 8.7312498 V 23.01875 Z m 1.0583333,0 v 0.529166 H 9.7895832 V 23.01875 Z m 1.0583335,0 v 0.529166 h 0.529166 V 23.01875 Z m 1.058333,0 v 0.529166 H 11.90625 V 23.01875 Z m 1.058333,0 v 0.529166 h 0.529167 V 23.01875 Z m 1.058334,0 v 0.529166 h 0.529166 V 23.01875 Z m 1.058333,0 v 0.529166 H 15.08125 V 23.01875 Z m 1.058333,0 v 0.529166 h 0.529167 V 23.01875 Z m 1.058334,0 v 0.529166 h 0.529166 V 23.01875 Z m 1.058333,0 v 0.529166 H 18.25625 V 23.01875 Z m 1.058333,0 v 0.529166 h 0.529167 V 23.01875 Z m 1.058334,0 v 0.529166 h 0.529166 V 23.01875 Z m 1.058333,0 v 0.529166 H 21.43125 V 23.01875 Z m 1.058333,0 v 0.529166 h 0.529167 V 23.01875 Z m 1.058334,0 v 0.529166 h 0.529166 V 23.01875 Z m 1.058333,0 v 0.529166 H 24.60625 V 23.01875 Z m 1.058333,0 v 0.529166 h 0.529167 V 23.01875 Z m 1.058334,0 v 0.529166 h 0.529166 V 23.01875 Z m 1.058333,0 v 0.529166 H 27.78125 V 23.01875 Z m 1.058333,0 v 0.529166 h 0.264583 V 23.01875 Z M 0,24.077083 v 0.529167 h 0.26458333 v -0.529167 z m 0.79374999,0 V 24.60625 H 1.3229166 v -0.529167 z m 1.05833331,0 V 24.60625 H 2.38125 v -0.529167 z m 1.0583333,0 v 0.529167 h 0.5291667 v -0.529167 z m 1.0583333,0 v 0.529167 h 0.5291667 v -0.529167 z m 1.0583333,0 v 0.529167 h 0.5291667 v -0.529167 z m 1.0583334,0 v 0.529167 h 0.5291666 v -0.529167 z m 1.0583333,0 v 0.529167 h 0.5291666 v -0.529167 z m 1.0583333,0 v 0.529167 h 0.5291666 v -0.529167 z m 1.0583333,0 v 0.529167 h 0.5291667 v -0.529167 z m 1.0583335,0 v 0.529167 h 0.529166 v -0.529167 z m 1.058333,0 v 0.529167 h 0.529167 v -0.529167 z m 1.058333,0 v 0.529167 h 0.529167 v -0.529167 z m 1.058334,0 v 0.529167 h 0.529166 v -0.529167 z m 1.058333,0 v 0.529167 h 0.529167 v -0.529167 z m 1.058333,0 v 0.529167 h 0.529167 v -0.529167 z m 1.058334,0 v 0.529167 h 0.529166 v -0.529167 z m 1.058333,0 v 0.529167 h 0.529167 v -0.529167 z m 1.058333,0 v 0.529167 h 0.529167 v -0.529167 z m 1.058334,0 v 0.529167 h 0.529166 v -0.529167 z m 1.058333,0 v 0.529167 h 0.529167 v -0.529167 z m 1.058333,0 v 0.529167 h 0.529167 v -0.529167 z m 1.058334,0 v 0.529167 h 0.529166 v -0.529167 z m 1.058333,0 v 0.529167 h 0.529167 v -0.529167 z m 1.058333,0 v 0.529167 h 0.529167 v -0.529167 z m 1.058334,0 v 0.529167 h 0.529166 v -0.529167 z m 1.058333,0 v 0.529167 h 0.529167 v -0.529167 z m 1.058333,0 v 0.529167 h 0.264583 V 24.077083 Z M 0,25.135416 v 0.529167 h 0.26458333 v -0.529167 z m 0.79374999,0 v 0.529167 H 1.3229166 v -0.529167 z m 1.05833331,0 v 0.529167 H 2.38125 v -0.529167 z m 1.0583333,0 v 0.529167 h 0.5291667 v -0.529167 z m 1.0583333,0 v 0.529167 h 0.5291667 v -0.529167 z m 1.0583333,0 v 0.529167 h 0.5291667 v -0.529167 z m 1.0583334,0 v 0.529167 h 0.5291666 v -0.529167 z m 1.0583333,0 v 0.529167 h 0.5291666 v -0.529167 z m 1.0583333,0 v 0.529167 h 0.5291666 v -0.529167 z m 1.0583333,0 v 0.529167 h 0.5291667 v -0.529167 z m 1.0583335,0 v 0.529167 h 0.529166 v -0.529167 z m 1.058333,0 v 0.529167 h 0.529167 v -0.529167 z m 1.058333,0 v 0.529167 h 0.529167 v -0.529167 z m 1.058334,0 v 0.529167 h 0.529166 v -0.529167 z m 1.058333,0 v 0.529167 h 0.529167 v -0.529167 z m 1.058333,0 v 0.529167 h 0.529167 v -0.529167 z m 1.058334,0 v 0.529167 h 0.529166 v -0.529167 z m 1.058333,0 v 0.529167 h 0.529167 v -0.529167 z m 1.058333,0 v 0.529167 h 0.529167 v -0.529167 z m 1.058334,0 v 0.529167 h 0.529166 v -0.529167 z m 1.058333,0 v 0.529167 h 0.529167 v -0.529167 z m 1.058333,0 v 0.529167 h 0.529167 v -0.529167 z m 1.058334,0 v 0.529167 h 0.529166 v -0.529167 z m 1.058333,0 v 0.529167 h 0.529167 v -0.529167 z m 1.058333,0 v 0.529167 h 0.529167 v -0.529167 z m 1.058334,0 v 0.529167 h 0.529166 v -0.529167 z m 1.058333,0 v 0.529167 h 0.529167 v -0.529167 z m 1.058333,0 v 0.529167 h 0.264583 V 25.135416 Z M 0,26.19375 v 0.529166 H 0.26458333 V 26.19375 Z m 0.79374999,0 v 0.529166 H 1.3229166 V 26.19375 Z m 1.05833331,0 v 0.529166 H 2.38125 V 26.19375 Z m 1.0583333,0 v 0.529166 H 3.4395833 V 26.19375 Z m 1.0583333,0 v 0.529166 H 4.4979166 V 26.19375 Z m 1.0583333,0 v 0.529166 H 5.5562499 V 26.19375 Z m 1.0583334,0 v 0.529166 H 6.6145832 V 26.19375 Z m 1.0583333,0 v 0.529166 H 7.6729165 V 26.19375 Z m 1.0583333,0 v 0.529166 H 8.7312498 V 26.19375 Z m 1.0583333,0 v 0.529166 H 9.7895832 V 26.19375 Z m 1.0583335,0 v 0.529166 h 0.529166 V 26.19375 Z m 1.058333,0 v 0.529166 H 11.90625 V 26.19375 Z m 1.058333,0 v 0.529166 h 0.529167 V 26.19375 Z m 1.058334,0 v 0.529166 h 0.529166 V 26.19375 Z m 1.058333,0 v 0.529166 H 15.08125 V 26.19375 Z m 1.058333,0 v 0.529166 h 0.529167 V 26.19375 Z m 1.058334,0 v 0.529166 h 0.529166 V 26.19375 Z m 1.058333,0 v 0.529166 H 18.25625 V 26.19375 Z m 1.058333,0 v 0.529166 h 0.529167 V 26.19375 Z m 1.058334,0 v 0.529166 h 0.529166 V 26.19375 Z m 1.058333,0 v 0.529166 H 21.43125 V 26.19375 Z m 1.058333,0 v 0.529166 h 0.529167 V 26.19375 Z m 1.058334,0 v 0.529166 h 0.529166 V 26.19375 Z m 1.058333,0 v 0.529166 H 24.60625 V 26.19375 Z m 1.058333,0 v 0.529166 h 0.529167 V 26.19375 Z m 1.058334,0 v 0.529166 h 0.529166 V 26.19375 Z m 1.058333,0 v 0.529166 H 27.78125 V 26.19375 Z m 1.058333,0 v 0.529166 h 0.264583 V 26.19375 Z M 0,27.252083 v 0.529167 h 0.26458333 v -0.529167 z m 0.79374999,0 V 27.78125 H 1.3229166 v -0.529167 z m 1.05833331,0 V 27.78125 H 2.38125 v -0.529167 z m 1.0583333,0 v 0.529167 h 0.5291667 v -0.529167 z m 1.0583333,0 v 0.529167 h 0.5291667 v -0.529167 z m 1.0583333,0 v 0.529167 h 0.5291667 v -0.529167 z m 1.0583334,0 v 0.529167 h 0.5291666 v -0.529167 z m 1.0583333,0 v 0.529167 h 0.5291666 v -0.529167 z m 1.0583333,0 v 0.529167 h 0.5291666 v -0.529167 z m 1.0583333,0 v 0.529167 h 0.5291667 v -0.529167 z m 1.0583335,0 v 0.529167 h 0.529166 v -0.529167 z m 1.058333,0 v 0.529167 h 0.529167 v -0.529167 z m 1.058333,0 v 0.529167 h 0.529167 v -0.529167 z m 1.058334,0 v 0.529167 h 0.529166 v -0.529167 z m 1.058333,0 v 0.529167 h 0.529167 v -0.529167 z m 1.058333,0 v 0.529167 h 0.529167 v -0.529167 z m 1.058334,0 v 0.529167 h 0.529166 v -0.529167 z m 1.058333,0 v 0.529167 h 0.529167 v -0.529167 z m 1.058333,0 v 0.529167 h 0.529167 v -0.529167 z m 1.058334,0 v 0.529167 h 0.529166 v -0.529167 z m 1.058333,0 v 0.529167 h 0.529167 v -0.529167 z m 1.058333,0 v 0.529167 h 0.529167 v -0.529167 z m 1.058334,0 v 0.529167 h 0.529166 v -0.529167 z m 1.058333,0 v 0.529167 h 0.529167 v -0.529167 z m 1.058333,0 v 0.529167 h 0.529167 v -0.529167 z m 1.058334,0 v 0.529167 h 0.529166 v -0.529167 z m 1.058333,0 v 0.529167 h 0.529167 v -0.529167 z m 1.058333,0 v 0.529167 h 0.264583 V 27.252083 Z M 0,28.310416 v 0.264583 h 0.26458333 v -0.264583 z m 0.79374999,0 v 0.264583 H 1.3229166 v -0.264583 z m 1.05833331,0 v 0.264583 H 2.38125 v -0.264583 z m 1.0583333,0 v 0.264583 h 0.5291667 v -0.264583 z m 1.0583333,0 v 0.264583 h 0.5291667 v -0.264583 z m 1.0583333,0 v 0.264583 h 0.5291667 v -0.264583 z m 1.0583334,0 v 0.264583 h 0.5291666 v -0.264583 z m 1.0583333,0 v 0.264583 h 0.5291666 v -0.264583 z m 1.0583333,0 v 0.264583 h 0.5291666 v -0.264583 z m 1.0583333,0 v 0.264583 h 0.5291667 v -0.264583 z m 1.0583335,0 v 0.264583 h 0.529166 v -0.264583 z m 1.058333,0 v 0.264583 h 0.529167 v -0.264583 z m 1.058333,0 v 0.264583 h 0.529167 v -0.264583 z m 1.058334,0 v 0.264583 h 0.529166 v -0.264583 z m 1.058333,0 v 0.264583 h 0.529167 v -0.264583 z m 1.058333,0 v 0.264583 h 0.529167 v -0.264583 z m 1.058334,0 v 0.264583 h 0.529166 v -0.264583 z m 1.058333,0 v 0.264583 h 0.529167 v -0.264583 z m 1.058333,0 v 0.264583 h 0.529167 v -0.264583 z m 1.058334,0 v 0.264583 h 0.529166 v -0.264583 z m 1.058333,0 v 0.264583 h 0.529167 v -0.264583 z m 1.058333,0 v 0.264583 h 0.529167 v -0.264583 z m 1.058334,0 v 0.264583 h 0.529166 v -0.264583 z m 1.058333,0 v 0.264583 h 0.529167 v -0.264583 z m 1.058333,0 v 0.264583 h 0.529167 v -0.264583 z m 1.058334,0 v 0.264583 h 0.529166 v -0.264583 z m 1.058333,0 v 0.264583 h 0.529167 v -0.264583 z m 1.058333,0 v 0.264583 h 0.264583 v -0.264583 z" />
  </g>
  <g
     inkscape:groupmode="layer"
     id="layer4"
     inkscape:label="mono2"
     style="display:inline">
    <path
       id="path472"
       style="display:inline;fill:#1a1a1a;stroke-width:0.264583"
       d="m 10.583333,7.4083332 v 1.0583333 h 7.408333 V 7.4083332 Z m 7.408333,1.0583333 V 19.05 H 19.05 V 8.4666665 Z m 0,10.5833335 h -7.408333 v 1.058333 h 7.408333 z m -7.408333,0 V 8.4666665 H 9.5249998 V 19.05 Z M 11.641666,9.5249998 V 11.641666 H 12.7 V 9.5249998 Z m 2.116667,0 v 2.1166662 h 1.058333 V 9.5249998 Z m 2.116667,0 v 2.1166662 h 1.058333 V 9.5249998 Z M 12.7,12.7 v 1.058333 h 1.058333 V 12.7 Z m 1.058333,1.058333 v 1.058333 h 1.058333 v -1.058333 z m 1.058333,0 H 15.875 V 12.7 h -1.058334 z m 1.058334,0 V 14.816666 15.875 h 1.058333 v -1.058334 -1.058333 z m 0,2.116667 h -1.058334 v 1.058333 H 15.875 Z m -1.058334,1.058333 h -1.058333 v 1.058333 h 1.058333 z m -1.058333,0 V 15.875 H 12.7 v 1.058333 z M 12.7,15.875 V 14.816666 13.758333 H 11.641666 V 14.816666 15.875 Z m -3.1750002,3.439583 v 0.79375 H 10.31875 v -0.79375 z m 8.7312502,0 v 0.79375 H 19.05 v -0.79375 z m -7.672917,1.058333 v 0.79375 h 7.408333 v -0.79375 z" />
    <rect
       style="display:inline;fill:#efa575;fill-opacity:1;stroke-width:0.264583"
       id="rect743"
       width="1.0583333"
       height="1.0583333"
       x="1.1967373e-06"
       y="8.1130219e-07" />
    <rect
       style="display:inline;fill:#efa575;fill-opacity:1;stroke-width:0.264583"
       id="rect744"
       width="1.0583333"
       height="1.0583333"
       x="27.516666"
       y="27.516665" />
  </g>
  <g
     inkscape:groupmode="layer"
     id="g741"
     inkscape:label="mono2 copy"
     style="display:none"
     sodipodi:insensitive="true">
    <path
       id="path723"
       style="display:inline;fill:#9b7f9c;fill-opacity:1;stroke-width:0.404157"
       d="m 9.5249998,18.785416 v 1.322917 h 1.0583332 v 1.058333 h 7.408333 V 20.108333 H 19.05 v -1.322917 z" />
    <rect
       style="fill:#f9dba9;fill-opacity:1;stroke-width:0.264583"
       id="rect742"
       width="7.4083333"
       height="10.583332"
       x="10.583333"
       y="8.4666662" />
    <path
       id="path742"
       style="display:inline;fill:#efa575;fill-opacity:1;stroke-width:0.264583"
       d="m 10.583333,8.4666665 v 0.5291667 h 7.408333 V 8.4666665 Z m 1.058333,1.5874995 v 2.116667 H 12.7 v -2.116667 z m 2.116667,0 v 2.116667 h 1.058333 v -2.116667 z m 2.116667,0 v 2.116667 h 1.058333 v -2.116667 z m -3.175,3.175 V 14.2875 h 1.058333 v -1.058334 z m 1.058333,1.058334 v 1.058333 h 1.058333 V 14.2875 Z m 1.058333,0 H 15.875 v -1.058334 h -1.058334 z m 1.058334,0 v 1.058333 1.058333 h 1.058333 V 15.345833 14.2875 Z m 0,2.116666 H 14.816666 V 17.4625 H 15.875 Z M 14.816666,17.4625 h -1.058333 v 1.058333 h 1.058333 z m -1.058333,0 V 16.404166 H 12.7 V 17.4625 Z M 12.7,16.404166 V 15.345833 14.2875 h -1.058334 v 1.058333 1.058333 z" />
    <path
       id="path726"
       style="display:inline;fill:#b83744;fill-opacity:1;stroke-width:0.264583"
       d="M 11.641666,9.5249998 V 11.641666 H 12.7 V 9.5249998 Z m 2.116667,0 v 2.1166662 h 1.058333 V 9.5249998 Z m 2.116667,0 v 2.1166662 h 1.058333 V 9.5249998 Z M 12.7,12.7 v 1.058333 h 1.058333 V 12.7 Z m 1.058333,1.058333 v 1.058333 h 1.058333 v -1.058333 z m 1.058333,0 H 15.875 V 12.7 h -1.058334 z m 1.058334,0 V 14.816666 15.875 h 1.058333 v -1.058334 -1.058333 z m 0,2.116667 h -1.058334 v 1.058333 H 15.875 Z m -1.058334,1.058333 h -1.058333 v 1.058333 h 1.058333 z m -1.058333,0 V 15.875 H 12.7 v 1.058333 z M 12.7,15.875 V 14.816666 13.758333 H 11.641666 V 14.816666 15.875 Z" />
    <path
       id="path727"
       style="display:inline;fill:#4c384d;fill-opacity:1;stroke-width:0.264583"
       d="m 10.583333,7.4083332 v 1.0583333 h 7.408333 V 7.4083332 Z m 7.408333,1.0583333 V 19.05 H 19.05 V 8.4666665 Z m 0,10.5833335 h -7.408333 v 1.058333 h 7.408333 z m -7.408333,0 V 8.4666665 H 9.5249998 V 19.05 Z" />
  </g>
</svg>
