<?xml version="1.0" encoding="UTF-8" standalone="no"?>
<!-- Created with Inkscape (http://www.inkscape.org/) -->

<svg
   width="48"
   height="48"
   viewBox="0 0 12.7 12.7"
   version="1.1"
   id="svg1"
   inkscape:version="1.3.2 (091e20ef0f, 2023-11-25)"
   sodipodi:docname="android_icon_legacy.svg"
   inkscape:export-filename="android_icon_legacy72.webp"
   inkscape:export-xdpi="144"
   inkscape:export-ydpi="144"
   xml:space="preserve"
   xmlns:inkscape="http://www.inkscape.org/namespaces/inkscape"
   xmlns:sodipodi="http://sodipodi.sourceforge.net/DTD/sodipodi-0.dtd"
   xmlns="http://www.w3.org/2000/svg"
   xmlns:svg="http://www.w3.org/2000/svg"><sodipodi:namedview
     id="namedview1"
     pagecolor="#ffffff"
     bordercolor="#000000"
     borderopacity="0.25"
     inkscape:showpageshadow="2"
     inkscape:pageopacity="0.0"
     inkscape:pagecheckerboard="0"
     inkscape:deskcolor="#d1d1d1"
     inkscape:document-units="px"
     showgrid="false"
     showguides="false"
     inkscape:zoom="10.708847"
     inkscape:cx="32.029592"
     inkscape:cy="22.92497"
     inkscape:window-width="1507"
     inkscape:window-height="1115"
     inkscape:window-x="35"
     inkscape:window-y="32"
     inkscape:window-maximized="0"
     inkscape:current-layer="layer1"><inkscape:grid
       id="grid1"
       units="px"
       originx="0"
       originy="0"
       spacingx="0.26458333"
       spacingy="0.26458333"
       empcolor="#0099e5"
       empopacity="0.30196078"
       color="#0099e5"
       opacity="0.14901961"
       empspacing="2"
       dotted="false"
       gridanglex="30"
       gridanglez="30"
       visible="false" /><sodipodi:guide
       position="9.5249995,6.3500003"
       orientation="0,-1"
       id="guide1"
       inkscape:locked="false" /><sodipodi:guide
       position="6.3499997,10.847917"
       orientation="1,0"
       id="guide2"
       inkscape:locked="false" /><sodipodi:guide
       position="9.5249995,9.5250002"
       orientation="0,-1"
       id="guide3"
       inkscape:locked="false" /><sodipodi:guide
       position="10.318749,3.1750005"
       orientation="0,-1"
       id="guide4"
       inkscape:locked="false" /></sodipodi:namedview><defs
     id="defs1" /><g
     inkscape:label="Layer 1"
     inkscape:groupmode="layer"
     id="layer1"><rect
       style="fill:#9fde84;stroke-width:2.31869"
       id="rect4"
       width="12.699999"
       height="12.7"
       x="-2.7755576e-17"
       y="2.09092e-16" /><path
       style="fill:#9b7f9c;fill-opacity:1;stroke-width:0.264583"
       d="M 3.7041664,8.466666 4.7624997,9.5249994 H 8.4666661 V 8.9958327 H 8.9958327 V 4.233333 L 7.9374997,3.1749997 Z"
       id="path20" /><rect
       style="fill:#f9dba9;fill-opacity:1;stroke-width:0.264583"
       id="rect20"
       width="3.7041664"
       height="4.7624998"
       x="4.2333331"
       y="3.7041664" /><path
       id="path21"
       style="fill:#efa575;fill-opacity:1;stroke-width:0.264583"
       d="M 5.2916667 4.2333333 L 4.7625 5.2916667 L 5.0270833 5.55625 L 5.55625 5.55625 L 5.55625 4.4979167 L 5.2916667 4.2333333 z M 6.35 4.2333333 L 5.8208333 5.2916667 L 6.0854167 5.55625 L 6.6145833 5.55625 L 6.6145833 4.4979167 L 6.35 4.2333333 z M 7.4083333 4.2333333 L 6.8791667 5.2916667 L 7.14375 5.55625 L 7.6729167 5.55625 L 7.6729167 4.4979167 L 7.4083333 4.2333333 z M 5.8208333 5.8208333 L 5.55625 6.35 L 4.7625 6.8791667 L 6.0854167 8.2020833 L 6.6145833 8.2020833 L 6.6145833 7.6729167 L 7.14375 7.6729167 L 7.14375 7.14375 L 7.6729167 7.14375 L 7.6729167 6.6145833 L 7.4083333 6.35 L 7.14375 6.6145833 L 7.14375 6.0854167 L 6.8791667 5.8208333 L 6.6145833 6.6145833 L 6.0854167 6.6145833 L 6.0854167 6.0854167 L 5.8208333 5.8208333 z " /><path
       style="fill:#efa575;fill-opacity:1;stroke-width:0.264583"
       d="M 3.9687497,8.2020827 4.2333331,8.466666 H 4.4979164 V 3.9687497 H 8.2020827 L 7.6729163,3.439583 H 4.4979164 L 3.9687497,3.9687497 Z"
       id="path19" /><path
       id="rect5"
       style="fill:#4c384d;fill-opacity:1;stroke-width:0.285782"
       d="M 4.2333334,3.175 V 3.7041667 H 7.9375 V 3.175 Z M 7.9375,3.7041667 v 4.7625 h 0.5291667 v -4.7625 z m 0,4.7625 H 4.2333334 V 8.588623 8.9958333 H 7.9375 Z m -3.7041666,0 v -4.7625 H 3.7041667 v 4.7625 z" /><path
       id="rect13"
       style="fill:#b83744;fill-opacity:1;stroke-width:0.324047"
       d="M 4.7625,4.2333333 V 5.2916667 H 5.2916667 V 4.2333333 Z m 1.0583334,0 V 5.2916667 H 6.35 V 4.2333333 Z m 1.0583333,0 V 5.2916667 H 7.4083334 V 4.2333333 Z m -1.5875,1.5875 V 6.35 H 4.7625 V 6.8791667 H 5.2916667 V 7.4083333 H 5.8208334 V 7.9375 H 6.35 V 7.4083333 H 6.8791667 V 6.8791667 H 7.14375 7.4083334 V 6.35 H 7.14375 6.8791667 V 5.8208333 H 6.35 V 6.35 H 5.8208334 V 5.8208333 Z" /></g></svg>
